<svg version="1.1" id="Layer_1" xmlns="http://www.w3.org/2000/svg" xmlns:xlink="http://www.w3.org/1999/xlink" x="0px" y="0px"
	 width="100%" viewBox="0 0 600 600" enable-background="new 0 0 600 600" xml:space="preserve" fill="none">
<path fill="#FFFFFF" opacity="1.000000" stroke="none" 
	d="
M217.838364,339.020233 
	C218.074722,339.249969 218.357529,339.373260 218.776382,339.154205 
	C218.776382,339.154205 218.626541,339.357239 218.800201,339.781708 
	C219.207703,339.976593 219.615204,340.171509 220.372879,340.839661 
	C220.559204,340.901215 220.745544,340.962738 221.214279,341.549408 
	C221.735474,341.820435 222.256653,342.091461 222.807983,342.225006 
	C222.807983,342.225006 222.697815,342.312531 223.001572,342.850006 
	C223.867508,343.388062 224.733444,343.926086 225.878860,344.485229 
	C225.878860,344.485229 225.604477,344.434418 225.859055,344.894653 
	C226.178238,345.026245 226.497437,345.157806 226.882675,345.136444 
	C226.882675,345.136444 226.756134,345.244812 227.003952,345.748444 
	C227.488373,346.017029 227.972794,346.285614 228.545258,346.510468 
	C228.545258,346.510468 228.590652,346.597687 228.847672,346.997864 
	C229.090698,347.225037 229.378265,347.348724 229.914459,347.042267 
	C229.914459,347.042267 229.680389,347.348206 230.145142,348.029297 
	C230.482864,349.560242 231.143341,351.100677 231.098572,352.620361 
	C230.957001,357.426910 230.551605,362.225708 230.061478,368.032104 
	C230.085190,368.709808 230.108902,369.387512 229.852646,370.426239 
	C232.300888,375.580353 234.749146,380.734467 237.197388,385.888580 
	C237.721146,385.667358 238.244919,385.446106 238.768677,385.224884 
	C236.956528,380.502319 235.144394,375.779755 233.759674,370.389130 
	C234.937653,366.612213 236.115631,362.835297 237.157150,358.971039 
	C237.157150,358.971039 237.071579,359.108643 237.697815,358.783905 
	C237.936920,357.876373 238.176041,356.968872 238.874069,355.745209 
	C239.524933,355.622314 240.175781,355.499451 240.834229,355.220032 
	C240.834229,355.220032 240.697327,355.296295 240.993561,355.841980 
	C241.861343,356.382690 242.729126,356.923431 243.760223,357.506409 
	C243.760223,357.506409 243.609100,357.435791 243.860092,357.897156 
	C244.178497,358.028809 244.496887,358.160461 244.879364,358.139740 
	C244.879364,358.139740 244.753815,358.247314 244.987686,358.736053 
	C245.446396,359.009094 245.905106,359.282135 246.501175,359.591278 
	C246.501175,359.591278 246.615448,359.675659 246.869873,360.053864 
	C247.112015,360.262817 247.393021,360.368713 247.773773,360.234894 
	C247.773773,360.234894 247.629852,360.275726 247.829102,360.798340 
	C248.221893,361.192993 248.614700,361.587646 249.053268,362.018036 
	C249.053268,362.018036 249.092316,361.975067 249.018387,362.904175 
	C250.091049,379.506165 251.163712,396.108185 252.236389,412.710175 
	C252.509888,412.735352 252.783371,412.760529 253.056870,412.785706 
	C255.769135,400.727570 258.481384,388.669464 261.193634,376.611328 
	C261.479523,376.634338 261.765411,376.657379 262.051300,376.680420 
	C263.385864,400.436951 264.720459,424.193512 265.852448,448.847778 
	C266.518311,452.942871 267.184204,457.037994 267.873108,461.729218 
	C268.194275,462.202209 268.515442,462.675201 268.863342,463.747101 
	C269.182495,464.222290 269.501678,464.697479 269.892975,465.900970 
	C275.918854,478.315002 281.944763,490.729065 288.270752,503.761353 
	C289.159210,501.973938 289.662537,500.961365 290.861084,499.934753 
	C295.086456,502.970551 299.311859,506.006317 304.085632,509.436127 
	C304.410736,504.139069 304.696899,499.475800 305.018433,494.236481 
	C307.001312,495.198883 308.281738,495.820343 309.826965,496.863129 
	C310.067505,497.110687 310.358063,497.262543 310.990936,497.888641 
	C312.195129,498.745178 313.399353,499.601715 314.997986,501.036438 
	C316.094910,501.783813 317.191864,502.531189 318.757660,503.597992 
	C319.594513,496.768066 320.319550,490.850861 321.695709,485.153625 
	C326.159149,487.913391 330.622620,490.673126 335.587097,493.979675 
	C336.101898,493.107025 337.048523,492.241302 337.062714,491.360596 
	C337.169617,484.731995 336.001617,477.874725 337.316132,471.520020 
	C339.585632,460.548584 335.615845,450.895050 333.205963,440.175598 
	C333.070099,439.747650 332.934265,439.319702 332.949097,438.102112 
	C327.827057,415.746796 322.767029,393.377014 317.563477,371.040680 
	C313.378357,353.075867 309.019592,335.151489 304.837219,316.588837 
	C304.545380,316.060669 304.253540,315.532532 303.869690,314.292023 
	C300.805359,307.953674 297.741028,301.615326 294.826447,294.571411 
	C294.794922,294.333038 294.763428,294.094696 294.890381,293.403931 
	C294.890381,293.403931 295.157959,293.006165 295.613220,292.821625 
	C295.899170,292.592194 296.007965,292.297302 296.206390,291.573486 
	C296.393402,291.337158 296.598145,291.117310 297.543365,290.957123 
	C298.123962,290.655487 298.778107,290.444000 299.274445,290.039093 
	C314.021027,278.009827 328.671600,265.861389 343.507172,253.943192 
	C359.378448,241.192978 375.402710,228.632721 391.396942,216.036194 
	C401.278900,208.253433 411.243530,200.575638 421.123901,192.790878 
	C421.969635,192.124527 422.459930,191.007019 423.708069,189.772232 
	C425.850708,188.228256 428.055023,186.762421 430.126282,185.127991 
	C447.557373,171.373001 465.010590,157.645218 482.352142,143.777924 
	C488.142883,139.147293 493.629333,134.136108 499.923218,129.129990 
	C501.925751,127.713600 504.023773,126.413414 505.913971,124.860329 
	C513.403870,118.706306 520.828796,112.473145 528.679077,106.017479 
	C528.935303,105.822617 529.139587,105.583427 529.972778,105.141960 
	C534.867859,101.494415 539.763000,97.846863 544.658081,94.199318 
	C544.369995,93.695511 544.081848,93.191704 543.793762,92.687897 
	C535.882751,94.323799 527.967590,95.940079 520.061462,97.599327 
	C496.886444,102.463036 473.717194,107.354317 450.536011,112.188362 
	C449.320312,112.441879 447.366333,112.811180 446.855316,112.202988 
	C443.128296,107.766968 439.975861,110.529442 436.120514,112.781418 
	C435.731842,112.859940 435.343201,112.938454 434.472290,112.600410 
	C430.340912,114.066353 426.209534,115.532288 421.395721,117.104820 
	C420.966217,117.268135 420.536682,117.431450 419.473389,117.299141 
	C418.321106,117.858131 417.168823,118.417122 415.987793,118.976913 
	C415.987793,118.976913 415.965759,118.995483 415.209961,118.930618 
	C413.754333,119.529076 412.298737,120.127541 410.055389,120.839790 
	C409.028473,121.087677 408.001556,121.335556 406.258362,121.292976 
	C399.393707,123.729012 392.529053,126.165047 385.089478,128.725952 
	C384.706635,128.811172 384.323822,128.896378 383.449615,128.950623 
	C383.449615,128.950623 382.997070,129.144485 382.347321,129.218155 
	C381.938446,129.365097 381.529602,129.512054 380.428253,129.350204 
	C378.585266,130.162460 376.742249,130.974731 374.415771,131.884109 
	C374.415771,131.884109 373.942871,132.024048 373.459259,132.037323 
	C373.134125,132.133820 372.882324,132.326279 372.110748,132.727432 
	C371.719421,132.821381 371.328094,132.915344 370.474701,132.600388 
	C367.903564,133.613770 365.332397,134.627136 362.147980,135.754089 
	C361.743439,135.849884 361.338928,135.945679 360.489868,135.595200 
	C357.937836,136.644135 355.385803,137.693085 352.248077,138.876251 
	C351.860229,138.976349 351.472382,139.076447 350.432281,139.078445 
	C349.380432,140.042847 348.328613,141.007248 347.023315,142.388718 
	C347.023315,142.388718 346.884247,142.856552 346.145477,142.874680 
	C343.093719,144.473740 339.938263,145.903397 337.006226,147.698090 
	C307.286133,165.889694 277.602478,184.140915 247.243301,201.762802 
	C247.057541,200.309738 246.600449,198.832306 246.728516,197.407440 
	C247.856522,184.857147 249.153381,172.321838 250.248962,159.768890 
	C250.562653,156.174576 250.383011,152.537216 250.354507,148.408356 
	C250.241455,148.277939 250.128387,148.147537 249.847244,147.329559 
	C243.707382,138.538071 237.470642,129.811935 231.474228,120.923668 
	C228.995667,117.249809 225.997360,116.521210 221.162048,117.971138 
	C209.361328,118.141930 197.559265,118.252281 185.760605,118.515472 
	C181.487045,118.610794 177.221649,119.071815 172.273438,119.241974 
	C171.583160,119.247543 170.892899,119.253113 169.460678,118.949844 
	C167.333389,118.856316 165.206085,118.762787 162.379410,118.211349 
	C152.255493,116.805733 142.131577,115.400116 131.816711,113.376381 
	C130.898209,113.416573 129.979721,113.456772 128.380310,113.094437 
	C127.337502,112.942764 126.294693,112.791092 125.050735,112.139046 
	C124.366844,112.123734 123.682961,112.108429 122.166275,111.996841 
	C120.774330,112.046440 119.382385,112.096039 117.509186,111.533279 
	C114.910156,111.699852 112.312538,111.893738 109.711861,112.028419 
	C95.800110,112.748871 81.884338,113.399689 67.978859,114.224670 
	C65.899567,114.348045 63.867336,115.264702 61.166168,115.945686 
	C60.229214,117.238472 59.292259,118.531258 58.593540,120.393021 
	C59.701454,120.238205 60.809364,120.083389 62.783493,119.967445 
	C64.517059,119.981133 66.250626,119.994820 68.585518,120.548531 
	C72.087875,120.396347 75.590233,120.244164 79.686577,120.134087 
	C80.083427,120.129974 80.480278,120.125862 81.483505,120.624382 
	C84.044830,120.480782 86.606163,120.337181 89.827820,120.229202 
	C90.488922,120.224228 91.150024,120.219254 92.101318,120.521660 
	C92.467522,120.428909 92.833725,120.336166 93.941360,120.282089 
	C95.907272,120.421844 97.873177,120.561600 100.747589,120.928596 
	C105.288193,121.214127 109.828789,121.499664 114.645210,121.843063 
	C114.645210,121.843063 114.893646,121.981865 115.330536,122.483406 
	C115.956902,122.598793 116.583275,122.714180 117.916939,122.980217 
	C135.600555,129.244843 153.284164,135.509476 171.219940,142.490311 
	C175.749344,151.983582 180.278763,161.476868 184.799973,172.372818 
	C184.676041,173.295120 184.552094,174.217438 184.235184,175.530869 
	C184.235184,175.530869 184.302414,175.961792 183.961899,176.691910 
	C183.274704,179.943466 182.573868,183.192200 181.902496,186.447006 
	C176.639038,211.964462 171.381210,237.483078 165.987534,263.715302 
	C166.739777,265.121643 167.492004,266.527954 168.368286,268.603302 
	C179.835388,287.898682 191.286850,307.203369 202.802963,326.469452 
	C203.613693,327.825775 204.901581,328.896851 206.206207,330.661530 
	C207.064590,331.182678 207.922974,331.703827 209.103928,332.801117 
	C211.278473,334.256195 213.453003,335.711304 215.930283,337.679871 
	C216.442764,337.973022 216.955261,338.266174 217.565567,338.521332 
	C217.565567,338.521332 217.586411,338.624176 217.838364,339.020233 
z"/>
<path fill="#C1C1C1" opacity="1.000000" stroke="none" 
	d="
M351.084534,139.176544 
	C351.472382,139.076447 351.860229,138.976349 352.915771,138.874817 
	C356.033783,137.929413 358.484100,136.985458 360.934387,136.041473 
	C361.338928,135.945679 361.743439,135.849884 362.830078,135.793533 
	C365.987030,134.891754 368.461914,133.950531 370.936768,133.009308 
	C371.328094,132.915344 371.719421,132.821381 372.668762,132.728012 
	C373.465454,132.493744 373.704163,132.258896 373.942871,132.024048 
	C373.942871,132.024048 374.415771,131.884109 375.021362,131.889587 
	C377.458191,131.149719 379.289459,130.404358 381.120728,129.659012 
	C381.529602,129.512054 381.938446,129.365097 382.773102,129.328903 
	C383.446259,129.286972 383.693604,129.134293 383.940979,128.981598 
	C384.323822,128.896378 384.706635,128.811172 385.770142,128.762268 
	C393.292053,126.393539 400.133362,123.988487 406.974640,121.583435 
	C408.001556,121.335556 409.028473,121.087677 410.803162,120.856140 
	C413.022552,120.246819 414.494141,119.621155 415.965759,118.995483 
	C415.965759,118.995483 415.987793,118.976913 416.349426,119.017845 
	C417.843109,118.570770 418.975159,118.082764 420.107178,117.594757 
	C420.536682,117.431450 420.966217,117.268135 422.130432,117.087173 
	C426.894928,115.718674 430.924713,114.367821 434.954529,113.016968 
	C435.343201,112.938454 435.731842,112.859940 436.783447,112.837334 
	C439.589752,112.817703 442.269989,111.352921 442.851257,115.225464 
	C442.551392,115.675941 442.319000,115.872749 441.729340,116.148026 
	C431.757538,127.870117 422.060730,139.429489 412.445953,151.056717 
	C400.499695,165.503448 388.630463,180.013809 376.711060,194.482788 
	C365.319183,208.311478 353.904907,222.121704 342.501801,235.941162 
	C330.374084,250.638809 318.248047,265.337830 305.936310,280.316528 
	C302.882080,283.102905 300.012756,285.608978 297.083435,287.727844 
	C297.075500,286.845093 297.027283,286.312714 297.193909,285.859283 
	C312.723541,243.594482 328.304199,201.348389 343.772797,159.061310 
	C345.813629,153.482269 347.288116,147.696091 349.015289,142.005859 
	C349.005676,142.005875 348.997375,142.019867 349.195038,141.944550 
	C349.627075,141.705124 349.815399,141.498932 350.202942,141.060532 
	C350.660339,140.305786 350.872437,139.741165 351.084534,139.176544 
z"/>
<path fill="#6A6A6A" opacity="1.000000" stroke="none" 
	d="
M247.908630,202.375412 
	C277.602478,184.140915 307.286133,165.889694 337.006226,147.698090 
	C339.938263,145.903397 343.093719,144.473740 346.545776,143.250671 
	C345.886536,146.213028 345.118317,148.970062 343.719543,151.357681 
	C335.495911,165.395096 327.173096,179.375153 318.794067,193.320694 
	C301.353088,222.348389 283.809265,251.314392 266.422607,280.374512 
	C263.028534,286.047424 260.155548,292.032074 256.733948,297.656647 
	C255.616135,291.902130 254.663254,286.380280 254.028000,280.822144 
	C252.847458,270.493073 251.893433,260.138336 250.769791,249.802460 
	C249.183228,235.208130 247.528290,220.621216 246.054688,205.747864 
	C246.462112,204.877884 246.717438,204.291214 247.075531,203.518875 
	C247.421722,203.013947 247.665176,202.694672 247.908630,202.375412 
z"/>
<path fill="#898989" opacity="1.000000" stroke="none" 
	d="
M304.737854,317.209167 
	C309.019592,335.151489 313.378357,353.075867 317.563477,371.040680 
	C322.767029,393.377014 327.827057,415.746796 332.544128,438.481567 
	C329.400299,435.847107 326.548737,432.927124 323.943512,429.801758 
	C315.942566,420.203308 308.036011,410.526184 299.928711,400.588623 
	C295.862915,395.515137 291.961151,390.732666 287.924438,385.637970 
	C285.588013,382.464630 283.382385,379.606659 281.185822,376.741669 
	C276.407806,370.509705 271.634460,364.274170 267.171875,357.897095 
	C268.636719,356.360535 269.735596,354.918610 270.949310,353.580841 
	C281.944885,341.461395 292.960480,329.360168 304.161377,317.229218 
	C304.352539,317.204834 304.737854,317.209167 304.737854,317.209167 
z"/>
<path fill="#8A8A8A" opacity="1.000000" stroke="none" 
	d="
M257.042206,297.872955 
	C260.155548,292.032074 263.028534,286.047424 266.422607,280.374512 
	C283.809265,251.314392 301.353088,222.348389 318.794067,193.320694 
	C327.173096,179.375153 335.495911,165.395096 343.719543,151.357681 
	C345.118317,148.970062 345.886536,146.213028 346.915161,143.241608 
	C346.884247,142.856552 347.023315,142.388718 347.434937,142.244507 
	C348.239319,142.068817 348.632111,142.037338 349.024902,142.005844 
	C347.288116,147.696091 345.813629,153.482269 343.772797,159.061310 
	C328.304199,201.348389 312.723541,243.594482 297.193909,285.859283 
	C297.027283,286.312714 297.075500,286.845093 297.073486,287.705017 
	C297.123566,288.069366 297.117523,288.091888 296.868896,288.163055 
	C296.574280,288.817871 296.528259,289.401489 296.532043,290.230042 
	C296.581818,290.474915 296.820618,290.913971 296.820618,290.913971 
	C296.598145,291.117310 296.393402,291.337158 295.819946,291.815826 
	C295.341675,292.374176 295.249817,292.690155 295.157959,293.006165 
	C295.157959,293.006165 294.890381,293.403931 294.610901,293.711182 
	C294.150604,294.247620 294.009766,294.499176 293.673950,294.799042 
	C293.438995,294.824921 292.982849,294.949310 292.524536,294.924896 
	C281.374054,295.885742 270.681824,296.871002 259.898132,297.712341 
	C259.551605,297.675140 259.296570,297.781830 258.708130,297.900024 
	C257.930542,297.898682 257.486359,297.885803 257.042206,297.872955 
z"/>
<path fill="#404040" opacity="1.000000" stroke="none" 
	d="
M205.967575,330.100586 
	C204.901581,328.896851 203.613693,327.825775 202.802963,326.469452 
	C191.286850,307.203369 179.835388,287.898682 168.542816,268.047852 
	C169.520767,267.177856 170.461136,266.423248 171.104431,266.623413 
	C174.249207,267.601807 177.318497,268.824768 180.407730,269.979340 
	C203.637573,278.661285 226.858597,287.367035 250.115860,295.974854 
	C251.278046,296.404968 252.750122,295.997803 254.329102,296.196228 
	C254.723831,297.276184 254.867371,298.140381 254.693939,299.139465 
	C244.645447,305.017975 234.875320,310.697693 225.204178,316.541290 
	C222.003967,318.474945 219.058868,320.830750 215.646118,323.031555 
	C212.185928,325.413239 209.076752,327.756897 205.967575,330.100586 
z"/>
<path fill="#2A2A2A" opacity="1.000000" stroke="none" 
	d="
M254.077881,295.980469 
	C252.750122,295.997803 251.278046,296.404968 250.115860,295.974854 
	C226.858597,287.367035 203.637573,278.661285 180.407730,269.979340 
	C177.318497,268.824768 174.249207,267.601807 171.104431,266.623413 
	C170.461136,266.423248 169.520767,267.177856 168.480804,267.713318 
	C167.492004,266.527954 166.739777,265.121643 166.389740,263.293640 
	C178.862518,251.921249 190.933090,240.970535 203.296570,230.141083 
	C204.669830,230.878372 205.750153,231.494431 206.873215,232.464020 
	C207.192276,233.587677 207.297897,234.487610 207.770264,235.108597 
	C216.502182,246.587875 225.216629,258.081451 234.065216,269.470642 
	C240.254120,277.436462 246.639069,285.250031 252.965271,293.441833 
	C253.355362,294.494904 253.716629,295.237701 254.077881,295.980469 
z"/>
<path fill="#4D4D4D" opacity="1.000000" stroke="none" 
	d="
M203.003662,230.019836 
	C190.933090,240.970535 178.862518,251.921249 166.456787,262.936646 
	C171.381210,237.483078 176.639038,211.964462 181.902496,186.447006 
	C182.573868,183.192200 183.274704,179.943466 184.250671,176.277710 
	C184.539459,175.863510 184.790497,175.811432 184.847855,176.229492 
	C185.121811,178.110245 185.141479,179.635880 185.585617,181.025864 
	C189.829819,194.309174 194.054932,207.600159 198.506622,220.814438 
	C199.587769,224.023682 201.482849,226.958710 203.003662,230.019836 
z"/>
<path fill="#4E4E4E" opacity="1.000000" stroke="none" 
	d="
M300.092743,400.879639 
	C308.036011,410.526184 315.942566,420.203308 323.943512,429.801758 
	C326.548737,432.927124 329.400299,435.847107 332.468811,438.876404 
	C332.934265,439.319702 333.070099,439.747650 333.163574,440.953918 
	C334.003082,452.419678 335.095032,463.095795 335.672089,473.799652 
	C335.933167,478.642334 335.170929,483.540161 334.668213,488.299500 
	C334.463470,488.185974 334.052673,487.961334 333.968506,487.730896 
	C333.720276,487.206665 333.491302,486.977753 333.168579,486.428925 
	C328.773651,474.763580 324.502960,463.444855 320.008881,452.215576 
	C316.873169,444.380341 313.431366,436.667603 310.094910,428.523254 
	C308.050079,423.095520 306.036621,418.044739 303.979126,412.625610 
	C302.622467,409.167938 301.309814,406.078583 299.998596,402.994629 
	C300.000000,403.000000 300.008514,403.006592 299.987610,402.710266 
	C299.930115,402.022217 299.893555,401.630493 299.916077,401.149109 
	C299.975189,401.059418 300.092743,400.879639 300.092743,400.879639 
z"/>
<path fill="#515151" opacity="1.000000" stroke="none" 
	d="
M206.086884,330.381042 
	C209.076752,327.756897 212.185928,325.413239 215.824738,323.360291 
	C218.565506,325.250916 220.684952,326.541321 222.094269,322.736359 
	C222.337997,322.078308 223.034622,321.434448 223.684723,321.104980 
	C228.679153,318.573517 233.663849,316.011169 238.761841,313.701874 
	C240.646927,312.847931 243.570801,311.541046 244.749496,312.333038 
	C250.993927,316.528595 255.113266,309.635468 260.537109,309.798798 
	C263.802673,309.897125 267.225250,308.001160 270.363098,308.461487 
	C277.320526,309.482208 284.142944,311.423248 291.425415,312.988770 
	C295.874176,313.660461 299.917938,314.332428 303.961700,315.004364 
	C304.253540,315.532532 304.545380,316.060669 304.787537,316.898987 
	C304.737854,317.209167 304.352539,317.204834 303.727783,317.148254 
	C290.500305,318.527466 277.892242,319.918213 265.296570,321.413696 
	C255.809631,322.540039 246.326477,323.713104 236.864182,325.027679 
	C228.544617,326.183502 220.239746,327.472382 211.974304,328.957916 
	C210.886322,329.153473 210.070526,330.863342 209.041763,331.960052 
	C208.954865,332.048248 208.781357,332.224976 208.781342,332.224976 
	C207.922974,331.703827 207.064590,331.182678 206.086884,330.381042 
z"/>
<path fill="#2E2E2E" opacity="1.000000" stroke="none" 
	d="
M266.055023,447.950073 
	C264.720459,424.193512 263.385864,400.436951 262.051300,376.680420 
	C261.765411,376.657379 261.479523,376.634338 261.193634,376.611328 
	C258.481384,388.669464 255.769135,400.727570 253.056870,412.785706 
	C252.783371,412.760529 252.509888,412.735352 252.236389,412.710175 
	C251.163712,396.108185 250.091049,379.506165 249.394440,362.491150 
	C253.731079,364.808167 257.691681,367.538239 262.269440,370.693726 
	C263.375305,367.205566 264.194275,364.622253 265.323212,362.312714 
	C266.067474,375.779053 266.632629,388.968994 266.897827,402.164948 
	C267.145142,414.469086 267.073486,426.779602 267.118835,439.528503 
	C267.060883,442.640442 267.026337,445.311188 266.757507,447.976166 
	C266.523224,447.970428 266.055023,447.950073 266.055023,447.950073 
z"/>
<path fill="#1B1B1B" opacity="1.000000" stroke="none" 
	d="
M310.126312,428.900146 
	C313.431366,436.667603 316.873169,444.380341 320.008881,452.215576 
	C324.502960,463.444855 328.773651,474.763580 333.203186,486.687012 
	C333.528625,487.540375 333.790649,487.750854 334.052673,487.961334 
	C334.052673,487.961334 334.463470,488.185974 334.691010,488.701782 
	C334.974396,490.622681 335.030212,492.027771 335.086060,493.432892 
	C330.622620,490.673126 326.159149,487.913391 321.275330,484.871368 
	C320.854950,484.589111 320.503387,484.416016 320.397949,484.187897 
	C320.191956,483.634583 320.091400,483.309418 319.963501,482.725403 
	C319.719177,482.202240 319.502167,481.937927 319.251343,481.297119 
	C318.731720,478.986176 318.245911,477.051758 317.819916,474.786621 
	C317.357361,473.284943 316.834991,472.114014 316.243591,470.586395 
	C316.061829,469.512115 315.949066,468.794495 315.837280,467.812592 
	C315.595367,467.308014 315.352539,467.067688 315.108826,466.621765 
	C315.107941,466.416199 315.036499,466.011261 315.068909,465.594086 
	C314.872375,463.707123 314.765015,462.205963 314.395172,460.772522 
	C311.661957,450.178375 308.876465,439.597717 306.506287,429.008057 
	C307.978851,428.968903 309.052582,428.934509 310.126312,428.900146 
z"/>
<path fill="#E2E2E2" opacity="1.000000" stroke="none" 
	d="
M297.182007,290.935547 
	C296.820618,290.913971 296.581818,290.474915 296.751495,289.960999 
	C296.986633,288.995331 297.052094,288.543610 297.117523,288.091888 
	C297.117523,288.091888 297.123566,288.069366 297.133484,288.092224 
	C300.012756,285.608978 302.882080,283.102905 306.291809,280.306427 
	C307.852631,279.540924 309.243958,279.340942 309.833344,278.546234 
	C313.732300,273.289032 318.822052,269.780579 324.334320,266.234283 
	C332.155762,261.202423 338.767609,254.322769 346.091614,248.477417 
	C356.386688,240.260803 366.878662,232.291306 377.251740,224.171799 
	C383.127045,219.572906 388.907562,214.853012 394.776215,210.245483 
	C403.824341,203.141724 412.911407,196.087570 422.108826,189.249695 
	C422.528900,189.691025 422.822113,189.895065 423.115326,190.099091 
	C422.459930,191.007019 421.969635,192.124527 421.123901,192.790878 
	C411.243530,200.575638 401.278900,208.253433 391.396942,216.036194 
	C375.402710,228.632721 359.378448,241.192978 343.507172,253.943192 
	C328.671600,265.861389 314.021027,278.009827 299.274445,290.039093 
	C298.778107,290.444000 298.123962,290.655487 297.182007,290.935547 
z"/>
<path fill="#515151" opacity="1.000000" stroke="none" 
	d="
M265.013245,362.038940 
	C264.194275,364.622253 263.375305,367.205566 262.269440,370.693726 
	C257.691681,367.538239 253.731079,364.808167 249.431396,362.026581 
	C249.092316,361.975067 249.053268,362.018036 249.002243,361.684631 
	C248.510757,360.992706 248.070312,360.634216 247.629852,360.275726 
	C247.629852,360.275726 247.773773,360.234894 247.708862,360.008972 
	C247.301132,359.747284 246.958282,359.711456 246.615448,359.675659 
	C246.615448,359.675659 246.501175,359.591278 246.514374,359.232880 
	C245.936310,358.665405 245.345062,358.456360 244.753815,358.247314 
	C244.753815,358.247314 244.879364,358.139740 244.774551,357.929443 
	C244.316193,357.624725 243.962646,357.530273 243.609100,357.435791 
	C243.609100,357.435791 243.760223,357.506409 243.699020,357.114380 
	C242.657654,356.246979 241.677490,355.771637 240.697327,355.296295 
	C240.697327,355.296295 240.834229,355.220032 240.708282,354.950073 
	C237.753922,352.564423 234.949570,350.415100 232.079544,348.357361 
	C231.392059,347.864441 230.485947,347.676453 229.680389,347.348206 
	C229.680389,347.348206 229.914459,347.042267 229.775955,346.909973 
	C229.288513,346.717651 228.939590,346.657654 228.590652,346.597687 
	C228.590652,346.597687 228.545258,346.510468 228.548248,346.184723 
	C227.952866,345.654266 227.354492,345.449524 226.756134,345.244812 
	C226.756134,345.244812 226.882675,345.136444 226.774384,344.927368 
	C226.312225,344.623688 225.958359,344.529053 225.604477,344.434418 
	C225.604477,344.434418 225.878860,344.485229 225.757324,344.103455 
	C224.656479,343.251984 223.677155,342.782257 222.697815,342.312531 
	C222.697815,342.312531 222.807983,342.225006 222.728546,341.973541 
	C222.076706,341.489502 221.504288,341.256897 220.931885,341.024292 
	C220.745544,340.962738 220.559204,340.901215 220.128143,340.360291 
	C219.464462,339.706360 219.045502,339.531799 218.626541,339.357239 
	C218.626541,339.357239 218.776382,339.154205 218.703949,338.974060 
	C218.283142,338.737335 217.934769,338.680756 217.586411,338.624176 
	C217.586411,338.624176 217.565567,338.521332 217.541779,338.178406 
	C216.887863,337.612457 216.257706,337.389404 215.627548,337.166382 
	C213.453003,335.711304 211.278473,334.256195 208.942642,332.513062 
	C208.781357,332.224976 208.954865,332.048248 209.405838,331.990112 
	C221.081238,337.217438 232.328812,342.454498 243.520920,347.807526 
	C249.728867,350.776672 255.844177,353.939545 262.008087,357.378815 
	C263.014374,359.174652 264.013824,360.606812 265.013245,362.038940 
z"/>
<path fill="#4D4D4D" opacity="1.000000" stroke="none" 
	d="
M303.915710,314.648193 
	C299.917938,314.332428 295.874176,313.660461 291.361633,312.633820 
	C290.315582,311.726044 289.834381,310.928253 289.146088,310.657959 
	C282.538208,308.063110 275.837799,305.692688 269.308594,302.917603 
	C267.914856,302.325226 267.106537,300.355591 266.408630,298.850342 
	C271.388245,298.459381 276.032104,298.557098 280.574188,297.924225 
	C284.767181,297.339996 288.850952,295.972046 292.982849,294.949310 
	C292.982849,294.949310 293.438995,294.824921 293.841248,294.964233 
	C294.243469,295.103546 294.676697,295.276978 294.676697,295.276978 
	C297.741028,301.615326 300.805359,307.953674 303.915710,314.648193 
z"/>
<path fill="#DDDDDD" opacity="1.000000" stroke="none" 
	d="
M61.813332,115.814377 
	C63.867336,115.264702 65.899567,114.348045 67.978859,114.224670 
	C81.884338,113.399689 95.800110,112.748871 109.711861,112.028419 
	C112.312538,111.893738 114.910156,111.699852 117.635742,112.155518 
	C116.475227,115.259682 115.188156,117.741600 113.797058,120.270966 
	C113.693024,120.318413 113.651382,120.576126 113.651382,120.576126 
	C113.651382,120.576126 113.949455,120.736923 114.022461,120.830956 
	C114.095459,120.924988 114.313194,121.021301 114.346207,121.210876 
	C114.379227,121.400452 114.369392,121.785194 114.369392,121.785194 
	C109.828789,121.499664 105.288193,121.214127 100.211212,120.456123 
	C99.139091,119.674591 98.624184,119.141518 98.064529,119.089439 
	C85.983810,117.965393 73.898087,116.895073 61.813332,115.814377 
z"/>
<path fill="#CFCFCF" opacity="1.000000" stroke="none" 
	d="
M442.964569,115.025932 
	C442.269989,111.352921 439.589752,112.817703 437.077026,112.789566 
	C439.975861,110.529442 443.128296,107.766968 446.855316,112.202988 
	C447.366333,112.811180 449.320312,112.441879 450.536011,112.188362 
	C473.717194,107.354317 496.886444,102.463036 520.061462,97.599327 
	C527.967590,95.940079 535.882751,94.323799 543.793762,92.687897 
	C544.081848,93.191704 544.369995,93.695511 544.658081,94.199318 
	C539.763000,97.846863 534.867859,101.494415 529.550537,105.137985 
	C529.128235,105.134018 528.962708,104.969818 529.015381,104.624969 
	C530.656372,102.567894 532.244690,100.855675 533.832947,99.143456 
	C533.666748,98.648170 533.500549,98.152885 533.334351,97.657608 
	C529.042236,98.216309 524.698792,98.523781 520.468811,99.386879 
	C512.083313,101.097878 503.782898,103.222855 495.405457,104.976761 
	C486.685272,106.802444 477.918793,108.408585 469.166809,110.080605 
	C460.436462,111.748482 451.698944,113.379021 442.964569,115.025932 
z"/>
<path fill="#BFBFBF" opacity="1.000000" stroke="none" 
	d="
M113.901077,120.223518 
	C115.188156,117.741600 116.475227,115.259682 117.876373,112.461700 
	C119.382385,112.096039 120.774330,112.046440 122.778900,112.302948 
	C124.011650,112.619171 124.631767,112.629295 125.251884,112.639420 
	C126.294693,112.791092 127.337502,112.942764 128.937271,113.516144 
	C130.332047,113.956726 131.169846,113.975609 132.007660,113.994492 
	C142.131577,115.400116 152.255493,116.805733 162.701324,118.589027 
	C163.023239,118.966705 162.956558,119.263580 162.518906,119.205887 
	C151.337479,119.444008 140.591400,119.676605 129.851242,120.070976 
	C126.245689,120.203377 122.655251,120.747688 118.658485,121.073059 
	C116.943771,121.035355 115.628487,121.028328 114.313194,121.021301 
	C114.313194,121.021301 114.095459,120.924988 113.986526,120.705643 
	C113.877594,120.486290 113.901077,120.223518 113.901077,120.223518 
z"/>
<path fill="#CFCFCF" opacity="1.000000" stroke="none" 
	d="
M423.411682,189.935669 
	C422.822113,189.895065 422.528900,189.691025 422.361694,189.067444 
	C422.968597,187.764175 423.449524,186.880432 424.288422,185.967575 
	C430.464203,181.472702 436.348785,177.090851 442.086823,172.524826 
	C457.009277,160.650330 471.805450,148.616226 486.794434,136.826889 
	C490.576294,133.852371 494.892365,131.557144 499.036316,129.036667 
	C499.109741,129.123581 499.254852,129.298874 499.254852,129.298874 
	C493.629333,134.136108 488.142883,139.147293 482.352142,143.777924 
	C465.010590,157.645218 447.557373,171.373001 430.126282,185.127991 
	C428.055023,186.762421 425.850708,188.228256 423.411682,189.935669 
z"/>
<path fill="#676767" opacity="1.000000" stroke="none" 
	d="
M114.346207,121.210876 
	C115.628487,121.028328 116.943771,121.035355 118.879898,121.334396 
	C130.276505,124.747597 141.000595,128.064896 151.845657,130.923172 
	C159.467468,132.931931 167.253967,134.315781 174.997116,136.302460 
	C175.013519,137.058716 174.999741,137.491180 174.800110,138.173416 
	C173.398773,139.540161 172.183289,140.657135 170.967789,141.774109 
	C153.284164,135.509476 135.600555,129.244843 117.360321,122.643112 
	C116.167015,122.197960 115.530327,122.089912 114.893646,121.981865 
	C114.893646,121.981865 114.645210,121.843063 114.507301,121.814133 
	C114.369392,121.785194 114.379227,121.400452 114.346207,121.210876 
z"/>
<path fill="#868686" opacity="1.000000" stroke="none" 
	d="
M172.952530,119.365967 
	C177.221649,119.071815 181.487045,118.610794 185.760605,118.515472 
	C197.559265,118.252281 209.361328,118.141930 221.997498,118.052505 
	C224.170486,118.417389 225.508011,118.700912 226.527588,118.994507 
	C225.468155,119.333023 224.726700,119.661469 223.692001,120.010376 
	C222.906509,120.311913 222.414230,120.592987 221.519714,120.882462 
	C220.313049,120.900383 219.508652,120.909897 218.702362,120.822083 
	C218.700500,120.724762 218.480286,120.665329 218.480286,120.665329 
	C218.480286,120.665329 218.455368,120.910011 218.121063,120.964615 
	C217.561813,121.038925 217.336838,121.058624 216.809998,120.770203 
	C208.728714,120.120949 200.866653,118.831932 193.328293,121.255249 
	C193.304459,121.906990 193.280640,122.558731 193.256821,123.210464 
	C196.551010,123.895355 199.845200,124.580238 202.960663,125.447739 
	C202.246582,126.027039 201.711258,126.423744 200.784271,126.857239 
	C199.614883,127.005859 198.837143,127.117691 197.721588,127.018501 
	C190.820999,125.173393 184.235092,123.624290 177.711319,121.847008 
	C176.024918,121.387573 174.533508,120.212379 172.952530,119.365967 
z"/>
<path fill="#BCBCBC" opacity="1.000000" stroke="none" 
	d="
M247.575958,202.069107 
	C247.665176,202.694672 247.421722,203.013947 246.734970,203.626984 
	C244.597626,204.679932 242.903595,205.439133 241.170258,205.815659 
	C242.085617,203.188141 243.621429,201.012497 243.898346,198.686935 
	C245.415054,185.949295 246.674576,173.179596 247.844101,160.404587 
	C247.943344,159.320435 246.732819,158.116348 246.162964,156.627716 
	C247.113266,154.209869 248.031372,152.132263 249.148743,149.807571 
	C249.708527,149.346848 250.069061,149.133224 250.429565,148.919586 
	C250.383011,152.537216 250.562653,156.174576 250.248962,159.768890 
	C249.153381,172.321838 247.856522,184.857147 246.728516,197.407440 
	C246.600449,198.832306 247.057541,200.309738 247.575958,202.069107 
z"/>
<path fill="#4F4F4F" opacity="1.000000" stroke="none" 
	d="
M203.296585,230.141083 
	C201.482849,226.958710 199.587769,224.023682 198.506622,220.814438 
	C194.054932,207.600159 189.829819,194.309174 185.585617,181.025864 
	C185.141479,179.635880 185.121811,178.110245 184.814926,176.109711 
	C184.614609,175.435516 184.515778,175.291473 184.428146,175.139740 
	C184.552094,174.217438 184.676041,173.295120 184.731384,171.546082 
	C184.776794,170.146729 184.890793,169.574127 185.260620,168.892242 
	C186.005859,168.522568 186.495285,168.262177 187.012634,168.300644 
	C187.345627,169.080261 187.650726,169.561005 187.776993,170.344727 
	C187.422180,172.763458 186.593307,175.080246 187.173080,176.963333 
	C191.995605,192.626999 197.046478,208.220978 202.140900,223.799194 
	C202.553162,225.059891 203.802231,226.046921 204.701584,227.351547 
	C204.740707,227.541962 204.891296,227.900497 204.701385,227.965775 
	C204.539215,228.240158 204.566971,228.449249 204.594727,228.658356 
	C204.760178,228.472687 204.925629,228.287018 205.431000,228.101318 
	C206.808517,227.684937 207.846115,227.268555 208.930634,226.908752 
	C208.977554,226.965332 209.073135,227.077011 209.012177,227.423645 
	C208.244324,229.217010 207.537399,230.663742 206.830490,232.110474 
	C205.750153,231.494431 204.669830,230.878372 203.296585,230.141083 
z"/>
<path fill="#2A2A2A" opacity="1.000000" stroke="none" 
	d="
M172.612976,119.303970 
	C174.533508,120.212379 176.024918,121.387573 177.711319,121.847008 
	C184.235092,123.624290 190.820999,125.173393 197.638519,127.344513 
	C196.565933,130.626358 195.238632,133.371170 193.629227,135.928757 
	C185.879242,131.162140 178.411346,126.582741 170.837112,121.727875 
	C170.554718,120.721169 170.378662,119.989929 170.202606,119.258682 
	C170.892899,119.253113 171.583160,119.247543 172.612976,119.303970 
z"/>
<path fill="#4E4E4E" opacity="1.000000" stroke="none" 
	d="
M290.165894,499.948761 
	C289.662537,500.961365 289.159210,501.973938 288.270752,503.761353 
	C281.944763,490.729065 275.918854,478.315002 269.914673,465.480377 
	C269.936401,465.059784 270.056030,464.951202 270.367340,465.104919 
	C273.478546,470.100342 276.211975,474.982056 279.097656,479.772064 
	C281.807587,484.270294 284.678375,488.671600 287.984283,493.918457 
	C288.849304,491.304077 289.255707,490.075745 289.774933,489.280243 
	C290.266083,492.657074 290.644440,495.601074 290.874542,498.705200 
	C290.539490,499.226440 290.352692,499.587585 290.165894,499.948761 
z"/>
<path fill="#BCBCBC" opacity="1.000000" stroke="none" 
	d="
M226.845551,118.984436 
	C225.508011,118.700912 224.170486,118.417389 222.472504,118.080368 
	C225.997360,116.521210 228.995667,117.249809 231.474228,120.923668 
	C237.470642,129.811935 243.707382,138.538071 249.578506,147.651489 
	C247.577057,147.281677 245.844360,146.589935 244.095825,145.909744 
	C244.079987,145.921280 244.046112,145.928558 243.831482,145.652557 
	C238.386948,142.952667 233.157013,140.528748 228.346375,138.074036 
	C233.345688,139.476776 237.925720,140.910324 242.505753,142.343872 
	C242.844620,142.108566 243.183487,141.873245 243.522354,141.637924 
	C237.963425,134.086761 232.404480,126.535599 226.845551,118.984436 
z"/>
<path fill="#2E2E2E" opacity="1.000000" stroke="none" 
	d="
M185.004791,169.001511 
	C184.890793,169.574127 184.776794,170.146729 184.735474,170.844742 
	C180.278763,161.476868 175.749344,151.983582 171.093872,142.132202 
	C172.183289,140.657135 173.398773,139.540161 175.061386,138.286499 
	C175.981476,138.462128 176.454453,138.774460 176.940033,139.484100 
	C179.636688,149.588104 182.320740,159.294815 185.004791,169.001511 
z"/>
<path fill="#2E2E2E" opacity="1.000000" stroke="none" 
	d="
M335.336548,493.706299 
	C335.030212,492.027771 334.974396,490.622681 334.895752,488.815277 
	C335.170929,483.540161 335.933167,478.642334 335.672089,473.799652 
	C335.095032,463.095795 334.003082,452.419678 333.107971,441.286377 
	C335.615845,450.895050 339.585632,460.548584 337.316132,471.520020 
	C336.001617,477.874725 337.169617,484.731995 337.062714,491.360596 
	C337.048523,492.241302 336.101898,493.107025 335.336548,493.706299 
z"/>
<path fill="#BCBCBC" opacity="1.000000" stroke="none" 
	d="
M61.489750,115.880035 
	C73.898087,116.895073 85.983810,117.965393 98.064529,119.089439 
	C98.624184,119.141518 99.139091,119.674591 99.756958,120.342499 
	C97.873177,120.561600 95.907272,120.421844 93.224106,120.193428 
	C92.274940,120.141273 92.043030,120.177773 91.811127,120.214272 
	C91.150024,120.219254 90.488922,120.224228 89.040131,120.124878 
	C85.794006,120.054291 83.335564,120.088020 80.877129,120.121750 
	C80.480278,120.125862 80.083427,120.129974 78.926346,120.046333 
	C74.772148,119.975220 71.378166,119.991867 67.984192,120.008507 
	C66.250626,119.994820 64.517059,119.981133 61.992722,119.912979 
	C60.253063,119.847031 59.304180,119.835541 58.355301,119.824043 
	C59.292259,118.531258 60.229214,117.238472 61.489750,115.880035 
z"/>
<path fill="#4D4D4D" opacity="1.000000" stroke="none" 
	d="
M229.912766,347.688751 
	C230.485947,347.676453 231.392059,347.864441 232.079544,348.357361 
	C234.949570,350.415100 237.753922,352.564423 240.704498,355.028351 
	C240.175781,355.499451 239.524933,355.622314 238.317734,356.062897 
	C237.531464,357.289948 237.301529,358.199280 237.071579,359.108643 
	C237.071579,359.108643 237.157150,358.971039 236.887650,359.136139 
	C234.494858,361.876648 232.371552,364.452087 230.248260,367.027496 
	C230.551605,362.225708 230.957001,357.426910 231.098572,352.620361 
	C231.143341,351.100677 230.482864,349.560242 229.912766,347.688751 
z"/>
<path fill="#868686" opacity="1.000000" stroke="none" 
	d="
M290.513489,499.941772 
	C290.352692,499.587585 290.539490,499.226440 291.241638,498.599670 
	C292.502563,498.191376 293.248108,498.048706 294.129547,498.227203 
	C296.443481,500.790100 298.621552,503.031799 300.799622,505.273499 
	C301.361694,505.068787 301.923767,504.864075 302.485840,504.659332 
	C302.658417,501.955750 302.830994,499.252136 303.020355,496.285583 
	C300.837097,496.140930 299.385193,496.044708 298.136780,495.681641 
	C300.279755,494.292603 302.219269,493.170471 304.453400,492.037140 
	C304.944702,492.014465 305.141418,492.002991 305.604279,492.151062 
	C307.261871,493.524994 308.653320,494.739380 309.923523,496.075195 
	C309.802246,496.196594 309.562164,496.441833 309.562164,496.441833 
	C308.281738,495.820343 307.001312,495.198883 305.018433,494.236481 
	C304.696899,499.475800 304.410736,504.139069 304.085632,509.436127 
	C299.311859,506.006317 295.086456,502.970551 290.513489,499.941772 
z"/>
<path fill="#CFCFCF" opacity="1.000000" stroke="none" 
	d="
M528.277771,106.269310 
	C520.828796,112.473145 513.403870,118.706306 505.913971,124.860329 
	C504.023773,126.413414 501.925751,127.713600 499.589050,129.214432 
	C499.254852,129.298874 499.109741,129.123581 499.193665,128.733109 
	C504.820099,123.579651 510.233093,118.653725 515.950745,114.111244 
	C519.730103,111.108627 523.946899,108.656586 528.044739,106.036423 
	C528.121643,106.114822 528.277771,106.269310 528.277771,106.269310 
z"/>
<path fill="#1B1B1B" opacity="1.000000" stroke="none" 
	d="
M233.332245,371.057190 
	C235.144394,375.779755 236.956528,380.502319 238.768677,385.224884 
	C238.244919,385.446106 237.721146,385.667358 237.197388,385.888580 
	C234.749146,380.734467 232.300888,375.580353 230.054901,370.485229 
	C231.282181,370.715210 232.307205,370.886200 233.332245,371.057190 
z"/>
<path fill="#676767" opacity="1.000000" stroke="none" 
	d="
M244.111664,145.898224 
	C245.844360,146.589935 247.577057,147.281677 249.662552,147.995270 
	C250.128387,148.147537 250.241455,148.277939 250.392044,148.663971 
	C250.069061,149.133224 249.708527,149.346848 248.763397,149.781036 
	C246.279083,150.556290 244.373810,151.092682 242.480667,151.669022 
	C236.661728,153.440460 230.847412,155.227158 225.188660,156.688141 
	C230.105713,154.555435 234.993073,153.007080 239.563248,150.801483 
	C241.432755,149.899246 242.616135,147.575348 244.111664,145.898224 
z"/>
<path fill="#868686" opacity="1.000000" stroke="none" 
	d="
M320.503387,484.416016 
	C320.503387,484.416016 320.854950,484.589111 320.949768,484.761383 
	C320.319550,490.850861 319.594513,496.768066 318.757660,503.597992 
	C317.191864,502.531189 316.094910,501.783813 314.918884,500.608643 
	C314.839752,500.180817 315.073456,499.901306 315.471619,499.914795 
	C316.546509,499.379517 317.746826,498.889282 317.815826,498.272522 
	C318.301208,493.932220 318.553650,489.565857 319.299927,485.037964 
	C319.980713,484.717407 320.242065,484.566711 320.503387,484.416016 
z"/>
<path fill="#CFCFCF" opacity="1.000000" stroke="none" 
	d="
M406.616516,121.438210 
	C400.133362,123.988487 393.292053,126.393539 386.057587,128.699829 
	C392.529053,126.165047 399.393707,123.729012 406.616516,121.438210 
z"/>
<path fill="#2E2E2E" opacity="1.000000" stroke="none" 
	d="
M233.545959,370.723145 
	C232.307205,370.886200 231.282181,370.715210 230.194885,370.304718 
	C230.108902,369.387512 230.085190,368.709808 230.154877,367.529785 
	C232.371552,364.452087 234.494858,361.876648 236.955872,359.179810 
	C236.115631,362.835297 234.937653,366.612213 233.545959,370.723145 
z"/>
<path fill="#868686" opacity="1.000000" stroke="none" 
	d="
M169.831635,119.104263 
	C170.378662,119.989929 170.554718,120.721169 170.628403,121.891121 
	C170.698776,123.202332 170.871506,124.074829 171.008392,125.214233 
	C170.951584,125.659439 170.930588,125.837746 170.652802,125.799789 
	C167.916199,123.476868 165.436386,121.370224 162.956558,119.263580 
	C162.956558,119.263580 163.023239,118.966705 163.051025,118.817986 
	C165.206085,118.762787 167.333389,118.856316 169.831635,119.104263 
z"/>
<path fill="#4F4F4F" opacity="1.000000" stroke="none" 
	d="
M265.953735,448.398926 
	C266.055023,447.950073 266.523224,447.970428 267.050171,448.270386 
	C267.735870,452.702545 267.894653,456.834686 268.001343,461.006897 
	C267.949249,461.046906 267.850067,461.133087 267.850067,461.133087 
	C267.184204,457.037994 266.518311,452.942871 265.953735,448.398926 
z"/>
<path fill="#CFCFCF" opacity="1.000000" stroke="none" 
	d="
M434.713409,112.808685 
	C430.924713,114.367821 426.894928,115.718674 422.471619,117.033875 
	C426.209534,115.532288 430.340912,114.066353 434.713409,112.808685 
z"/>
<path fill="#CFCFCF" opacity="1.000000" stroke="none" 
	d="
M360.712128,135.818344 
	C358.484100,136.985458 356.033783,137.929413 353.208618,138.807693 
	C355.385803,137.693085 357.937836,136.644135 360.712128,135.818344 
z"/>
<path fill="#CFCFCF" opacity="1.000000" stroke="none" 
	d="
M370.705750,132.804840 
	C368.461914,133.950531 365.987030,134.891754 363.136719,135.736755 
	C365.332397,134.627136 367.903564,133.613770 370.705750,132.804840 
z"/>
<path fill="#DDDDDD" opacity="1.000000" stroke="none" 
	d="
M68.284851,120.278519 
	C71.378166,119.991867 74.772148,119.975220 78.629356,120.025284 
	C75.590233,120.244164 72.087875,120.396347 68.284851,120.278519 
z"/>
<path fill="#CFCFCF" opacity="1.000000" stroke="none" 
	d="
M380.774475,129.504608 
	C379.289459,130.404358 377.458191,131.149719 375.263092,131.841034 
	C376.742249,130.974731 378.585266,130.162460 380.774475,129.504608 
z"/>
<path fill="#DDDDDD" opacity="1.000000" stroke="none" 
	d="
M81.180313,120.373062 
	C83.335564,120.088020 85.794006,120.054291 88.709961,120.107071 
	C86.606163,120.337181 84.044830,120.480782 81.180313,120.373062 
z"/>
<path fill="#868686" opacity="1.000000" stroke="none" 
	d="
M314.721649,500.319519 
	C313.399353,499.601715 312.195129,498.745178 310.944580,497.494659 
	C310.898224,497.100677 311.095886,496.880920 311.411377,496.948700 
	C312.842377,497.978088 313.957916,498.939697 315.073456,499.901306 
	C315.073456,499.901306 314.839752,500.180817 314.721649,500.319519 
z"/>
<path fill="#CFCFCF" opacity="1.000000" stroke="none" 
	d="
M415.587860,118.963058 
	C414.494141,119.621155 413.022552,120.246819 411.197021,120.799240 
	C412.298737,120.127541 413.754333,119.529076 415.587860,118.963058 
z"/>
<path fill="#CFCFCF" opacity="1.000000" stroke="none" 
	d="
M349.015289,142.005859 
	C348.632111,142.037338 348.239319,142.068817 347.561646,142.035980 
	C348.328613,141.007248 349.380432,140.042847 350.758423,139.127502 
	C350.872437,139.741165 350.660339,140.305786 349.978577,141.082611 
	C349.245758,141.471100 349.075226,141.712784 348.997375,142.019867 
	C348.997375,142.019867 349.005676,142.005875 349.015289,142.005859 
z"/>
<path fill="#CFCFCF" opacity="1.000000" stroke="none" 
	d="
M419.790283,117.446945 
	C418.975159,118.082764 417.843109,118.570770 416.363831,119.017448 
	C417.168823,118.417122 418.321106,117.858131 419.790283,117.446945 
z"/>
<path fill="#DDDDDD" opacity="1.000000" stroke="none" 
	d="
M131.912186,113.685440 
	C131.169846,113.975609 130.332047,113.956726 129.277725,113.717407 
	C129.979721,113.456772 130.898209,113.416573 131.912186,113.685440 
z"/>
<path fill="#4D4D4D" opacity="1.000000" stroke="none" 
	d="
M240.845444,355.569153 
	C241.677490,355.771637 242.657654,356.246979 243.617355,357.093262 
	C242.729126,356.923431 241.861343,356.382690 240.845444,355.569153 
z"/>
<path fill="#4D4D4D" opacity="1.000000" stroke="none" 
	d="
M222.849701,342.581268 
	C223.677155,342.782257 224.656479,343.251984 225.617599,344.092926 
	C224.733444,343.926086 223.867508,343.388062 222.849701,342.581268 
z"/>
<path fill="#DDDDDD" opacity="1.000000" stroke="none" 
	d="
M58.474419,120.108536 
	C59.304180,119.835541 60.253063,119.847031 61.559612,119.893555 
	C60.809364,120.083389 59.701454,120.238205 58.474419,120.108536 
z"/>
<path fill="#DDDDDD" opacity="1.000000" stroke="none" 
	d="
M125.151306,112.389236 
	C124.631767,112.629295 124.011650,112.619171 123.195297,112.351089 
	C123.682961,112.108429 124.366844,112.123734 125.151306,112.389236 
z"/>
<path fill="#2E2E2E" opacity="1.000000" stroke="none" 
	d="
M237.384705,358.946289 
	C237.301529,358.199280 237.531464,357.289948 238.088287,356.220947 
	C238.176041,356.968872 237.936920,357.876373 237.384705,358.946289 
z"/>
<path fill="#4F4F4F" opacity="1.000000" stroke="none" 
	d="
M269.878632,465.116211 
	C269.501678,464.697479 269.182495,464.222290 268.901917,463.400909 
	C268.940521,463.054718 269.049957,462.967804 269.294159,463.132019 
	C269.710907,463.847870 269.883484,464.399536 270.056030,464.951202 
	C270.056030,464.951202 269.936401,465.059784 269.878632,465.116211 
z"/>
<path fill="#4F4F4F" opacity="1.000000" stroke="none" 
	d="
M268.888550,463.101440 
	C268.515442,462.675201 268.194275,462.202209 267.861572,461.431152 
	C267.850067,461.133087 267.949249,461.046906 268.249146,461.169556 
	C268.716034,461.850708 268.882996,462.409271 269.049957,462.967804 
	C269.049957,462.967804 268.940521,463.054718 268.888550,463.101440 
z"/>
<path fill="#4D4D4D" opacity="1.000000" stroke="none" 
	d="
M221.073090,341.286865 
	C221.504288,341.256897 222.076706,341.489502 222.713470,342.042297 
	C222.256653,342.091461 221.735474,341.820435 221.073090,341.286865 
z"/>
<path fill="#4D4D4D" opacity="1.000000" stroke="none" 
	d="
M244.870758,358.491699 
	C245.345062,358.456360 245.936310,358.665405 246.445679,359.214844 
	C245.905106,359.282135 245.446396,359.009094 244.870758,358.491699 
z"/>
<path fill="#4D4D4D" opacity="1.000000" stroke="none" 
	d="
M226.880035,345.496643 
	C227.354492,345.449524 227.952866,345.654266 228.504211,346.206604 
	C227.972794,346.285614 227.488373,346.017029 226.880035,345.496643 
z"/>
<path fill="#4D4D4D" opacity="1.000000" stroke="none" 
	d="
M247.729492,360.537048 
	C248.070312,360.634216 248.510757,360.992706 248.979370,361.666748 
	C248.614700,361.587646 248.221893,361.192993 247.729492,360.537048 
z"/>
<path fill="#4D4D4D" opacity="1.000000" stroke="none" 
	d="
M218.713379,339.569458 
	C219.045502,339.531799 219.464462,339.706360 219.953049,340.123688 
	C219.615204,340.171509 219.207703,339.976593 218.713379,339.569458 
z"/>
<path fill="#4D4D4D" opacity="1.000000" stroke="none" 
	d="
M215.778915,337.423096 
	C216.257706,337.389404 216.887863,337.612457 217.492889,338.197388 
	C216.955261,338.266174 216.442764,337.973022 215.778915,337.423096 
z"/>
<path fill="#DDDDDD" opacity="1.000000" stroke="none" 
	d="
M115.112091,122.232635 
	C115.530327,122.089912 116.167015,122.197960 117.006668,122.567780 
	C116.583275,122.714180 115.956902,122.598793 115.112091,122.232635 
z"/>
<path fill="#2E2E2E" opacity="1.000000" stroke="none" 
	d="
M184.331665,175.335297 
	C184.515778,175.291473 184.614609,175.435516 184.757568,175.691650 
	C184.790497,175.811432 184.539459,175.863510 184.420929,175.912659 
	C184.302414,175.961792 184.235184,175.530869 184.331665,175.335297 
z"/>
<path fill="#CFCFCF" opacity="1.000000" stroke="none" 
	d="
M373.701050,132.030685 
	C373.704163,132.258896 373.465454,132.493744 372.965302,132.671646 
	C372.882324,132.326279 373.134125,132.133820 373.701050,132.030685 
z"/>
<path fill="#868686" opacity="1.000000" stroke="none" 
	d="
M310.798401,497.209656 
	C310.358063,497.262543 310.067505,497.110687 309.694580,496.652466 
	C309.562164,496.441833 309.802246,496.196594 310.133667,496.186340 
	C310.723969,496.367523 310.934235,496.602478 311.095886,496.880920 
	C311.095886,496.880920 310.898224,497.100677 310.798401,497.209656 
z"/>
<path fill="#CFCFCF" opacity="1.000000" stroke="none" 
	d="
M383.695312,128.966110 
	C383.693604,129.134293 383.446259,129.286972 383.097961,129.292068 
	C382.997070,129.144485 383.449615,128.950623 383.695312,128.966110 
z"/>
<path fill="#CFCFCF" opacity="1.000000" stroke="none" 
	d="
M529.210144,105.216965 
	C529.139587,105.583427 528.935303,105.822617 528.478394,106.143394 
	C528.277771,106.269310 528.121643,106.114822 528.163330,105.828461 
	C528.405151,105.281921 528.657715,105.091156 528.962708,104.969818 
	C528.962708,104.969818 529.128235,105.134018 529.210144,105.216965 
z"/>
<path fill="#E2E2E2" opacity="1.000000" stroke="none" 
	d="
M295.385590,292.913879 
	C295.249817,292.690155 295.341675,292.374176 295.686523,291.997559 
	C296.007965,292.297302 295.899170,292.592194 295.385590,292.913879 
z"/>
<path fill="#E2E2E2" opacity="1.000000" stroke="none" 
	d="
M294.751587,294.924194 
	C294.676697,295.276978 294.243469,295.103546 294.076202,294.938354 
	C294.009766,294.499176 294.150604,294.247620 294.531677,293.937378 
	C294.763428,294.094696 294.794922,294.333038 294.751587,294.924194 
z"/>
<path fill="#DDDDDD" opacity="1.000000" stroke="none" 
	d="
M91.956223,120.367966 
	C92.043030,120.177773 92.274940,120.141273 92.853394,120.174095 
	C92.833725,120.336166 92.467522,120.428909 91.956223,120.367966 
z"/>
<path fill="#4D4D4D" opacity="1.000000" stroke="none" 
	d="
M217.712387,338.822205 
	C217.934769,338.680756 218.283142,338.737335 218.659149,339.092010 
	C218.357529,339.373260 218.074722,339.249969 217.712387,338.822205 
z"/>
<path fill="#4D4D4D" opacity="1.000000" stroke="none" 
	d="
M225.731766,344.664551 
	C225.958359,344.529053 226.312225,344.623688 226.741364,345.003845 
	C226.497437,345.157806 226.178238,345.026245 225.731766,344.664551 
z"/>
<path fill="#4D4D4D" opacity="1.000000" stroke="none" 
	d="
M228.719162,346.797791 
	C228.939590,346.657654 229.288513,346.717651 229.673920,347.073303 
	C229.378265,347.348724 229.090698,347.225037 228.719162,346.797791 
z"/>
<path fill="#4D4D4D" opacity="1.000000" stroke="none" 
	d="
M243.734589,357.666504 
	C243.962646,357.530273 244.316193,357.624725 244.742508,358.005676 
	C244.496887,358.160461 244.178497,358.028809 243.734589,357.666504 
z"/>
<path fill="#4D4D4D" opacity="1.000000" stroke="none" 
	d="
M246.742661,359.864746 
	C246.958282,359.711456 247.301132,359.747284 247.678436,360.077332 
	C247.393021,360.368713 247.112015,360.262817 246.742661,359.864746 
z"/>
<path fill="#E1E1E1" opacity="1.000000" stroke="none" 
	d="
M423.930420,185.996674 
	C423.449524,186.880432 422.968597,187.764175 422.234802,188.830154 
	C412.911407,196.087570 403.824341,203.141724 394.776215,210.245483 
	C388.907562,214.853012 383.127045,219.572906 377.251740,224.171799 
	C366.878662,232.291306 356.386688,240.260803 346.091614,248.477417 
	C338.767609,254.322769 332.155762,261.202423 324.334320,266.234283 
	C318.822052,269.780579 313.732300,273.289032 309.833344,278.546234 
	C309.243958,279.340942 307.852631,279.540924 306.476746,280.026123 
	C318.248047,265.337830 330.374084,250.638809 342.501801,235.941162 
	C353.904907,222.121704 365.319183,208.311478 376.711060,194.482788 
	C388.630463,180.013809 400.499695,165.503448 412.445953,151.056717 
	C422.060730,139.429489 431.757538,127.870117 441.712036,116.542343 
	C438.805328,128.622055 435.523956,140.418961 432.427094,152.264114 
	C429.494232,163.481995 426.754883,174.750458 423.930420,185.996674 
z"/>
<path fill="#CDCDCD" opacity="1.000000" stroke="none" 
	d="
M424.288422,185.967575 
	C426.754883,174.750458 429.494232,163.481995 432.427094,152.264114 
	C435.523956,140.418961 438.805328,128.622055 442.023438,116.409744 
	C442.319000,115.872749 442.551392,115.675941 442.851257,115.225471 
	C451.698944,113.379021 460.436462,111.748482 469.166809,110.080605 
	C477.918793,108.408585 486.685272,106.802444 495.405457,104.976761 
	C503.782898,103.222855 512.083313,101.097878 520.468811,99.386879 
	C524.698792,98.523781 529.042236,98.216309 533.334351,97.657608 
	C533.500549,98.152885 533.666748,98.648170 533.832947,99.143456 
	C532.244690,100.855675 530.656372,102.567894 529.015381,104.624969 
	C528.657715,105.091156 528.405151,105.281921 528.086426,105.750069 
	C523.946899,108.656586 519.730103,111.108627 515.950745,114.111244 
	C510.233093,118.653725 504.820099,123.579651 499.120270,128.646194 
	C494.892365,131.557144 490.576294,133.852371 486.794434,136.826889 
	C471.805450,148.616226 457.009277,160.650330 442.086823,172.524826 
	C436.348785,177.090851 430.464203,181.472702 424.288422,185.967575 
z"/>
<path fill="#8A8A8A" opacity="1.000000" stroke="none" 
	d="
M349.195038,141.944550 
	C349.075226,141.712784 349.245758,141.471100 349.733276,141.272736 
	C349.815399,141.498932 349.627075,141.705124 349.195038,141.944550 
z"/>
<path fill="#515151" opacity="1.000000" stroke="none" 
	d="
M292.524536,294.924896 
	C288.850952,295.972046 284.767181,297.339996 280.574188,297.924225 
	C276.032104,298.557098 271.388245,298.459381 265.985748,298.842529 
	C261.792114,299.004730 258.401520,299.004669 255.010910,299.004578 
	C254.867371,298.140381 254.723831,297.276184 254.329086,296.196228 
	C253.716629,295.237701 253.355362,294.494904 252.987061,293.014404 
	C253.669113,286.845001 247.150345,282.496246 250.595963,276.558136 
	C250.821243,276.169891 249.460220,275.007172 249.104599,274.099823 
	C248.632721,272.895935 248.235123,271.603119 248.138351,270.323334 
	C247.857742,266.612762 247.960831,262.863586 247.519791,259.176605 
	C246.511475,250.747253 242.919800,242.635086 244.911774,233.824509 
	C245.581573,230.861908 245.802994,227.555496 245.218994,224.606277 
	C244.238480,219.654587 242.448700,214.863144 241.140900,209.710114 
	C242.822433,208.287674 244.362503,207.159409 245.902573,206.031158 
	C247.528290,220.621216 249.183228,235.208130 250.769791,249.802460 
	C251.893433,260.138336 252.847458,270.493073 254.028000,280.822144 
	C254.663254,286.380280 255.616135,291.902130 256.733948,297.656647 
	C257.486359,297.885803 257.930542,297.898682 258.945740,297.921509 
	C259.516785,297.931458 259.989624,297.856262 259.989624,297.856262 
	C270.681824,296.871002 281.374054,295.885742 292.524536,294.924896 
z"/>
<path fill="#4F4F4F" opacity="1.000000" stroke="none" 
	d="
M246.054688,205.747864 
	C244.362503,207.159409 242.822433,208.287674 240.764893,209.715164 
	C234.812256,213.226364 229.449936,216.570862 223.920013,219.610397 
	C219.068695,222.276917 214.029388,224.601425 209.073135,227.076996 
	C209.073135,227.077011 208.977554,226.965332 209.105316,226.656311 
	C210.188232,225.594467 211.143372,224.841629 212.047913,224.087982 
	C211.997330,224.087189 212.089172,224.129700 212.400650,224.077332 
	C213.517105,223.391006 214.322083,222.757065 215.082214,222.140060 
	C215.037384,222.156982 215.132156,222.171387 215.473267,222.112717 
	C218.254318,220.416336 220.694260,218.778641 223.110779,217.165070 
	C223.087341,217.189178 223.154587,217.189301 223.500809,217.136673 
	C228.040710,214.427399 232.234406,211.770767 236.580093,209.110382 
	C236.732101,209.106644 236.982803,208.934509 237.298157,208.865265 
	C238.785950,207.906860 239.958374,207.017731 241.148209,206.148590 
	C241.165619,206.168594 241.209549,206.198334 241.209549,206.198334 
	C242.903595,205.439133 244.597626,204.679932 246.632233,203.812637 
	C246.717438,204.291214 246.462112,204.877884 246.054688,205.747864 
z"/>
<path fill="#6A6A6A" opacity="1.000000" stroke="none" 
	d="
M262.001221,357.015137 
	C255.844177,353.939545 249.728867,350.776672 243.520920,347.807526 
	C232.328812,342.454498 221.081238,337.217438 209.492737,331.901917 
	C210.070526,330.863342 210.886322,329.153473 211.974304,328.957916 
	C220.239746,327.472382 228.544617,326.183502 236.864182,325.027679 
	C246.326477,323.713104 255.809631,322.540039 265.296570,321.413696 
	C277.892242,319.918213 290.500305,318.527466 303.536652,317.172668 
	C292.960480,329.360168 281.944885,341.461395 270.949310,353.580841 
	C269.735596,354.918610 268.636719,356.360535 266.821259,357.853455 
	C264.772369,357.640198 263.386780,357.327667 262.001221,357.015137 
z"/>
<path fill="#4F4F4F" opacity="1.000000" stroke="none" 
	d="
M262.008087,357.378845 
	C263.386780,357.327667 264.772369,357.640198 266.508545,357.996399 
	C271.634460,364.274170 276.407806,370.509705 281.185822,376.741669 
	C283.382385,379.606659 285.588013,382.464630 287.895325,385.663757 
	C288.001129,386.001740 287.945648,386.054199 287.585449,386.036621 
	C286.149384,386.348053 285.073456,386.677094 283.684753,386.848877 
	C281.891418,384.441010 280.410919,382.190369 278.809448,379.662476 
	C278.097107,378.591492 277.505737,377.797760 276.537720,377.102417 
	C275.111511,382.086243 273.618805,386.924713 273.095276,391.865875 
	C271.519196,406.742554 270.347839,421.661896 268.906525,436.553711 
	C268.820068,437.446808 267.752991,438.244965 267.142212,439.087311 
	C267.073486,426.779602 267.145142,414.469086 266.897827,402.164948 
	C266.632629,388.968994 266.067474,375.779053 265.323212,362.312714 
	C264.013824,360.606812 263.014374,359.174652 262.008087,357.378845 
z"/>
<path fill="#4F4F4F" opacity="1.000000" stroke="none" 
	d="
M306.107422,429.012817 
	C308.876465,439.597717 311.661957,450.178375 314.395172,460.772522 
	C314.765015,462.205963 314.872375,463.707123 314.812744,465.614410 
	C314.353363,466.044464 314.182465,466.037018 313.907013,465.808105 
	C313.610504,465.307617 313.354065,465.114197 313.012909,464.684601 
	C312.983307,463.933289 312.973846,463.503693 312.957794,462.765503 
	C312.630920,461.969879 312.310638,461.482880 311.974396,460.769592 
	C311.958405,460.543335 311.961517,460.089661 311.940735,459.765045 
	C311.313110,458.960052 310.706299,458.479675 310.071716,457.666077 
	C310.031372,456.887268 310.018829,456.441742 310.245911,455.811157 
	C309.688934,454.749939 308.892303,453.873779 308.066162,452.664703 
	C308.027496,451.886292 308.018341,451.440796 308.262634,450.771240 
	C306.479919,442.619568 304.588898,434.650421 302.335083,426.785217 
	C301.454437,423.712036 299.853058,420.825317 298.410950,417.938080 
	C296.468628,414.049469 292.389832,410.772278 295.763336,405.570526 
	C296.323730,404.706390 295.487000,402.076324 294.480042,401.202423 
	C289.799835,397.140594 286.050385,392.874390 287.945648,386.054199 
	C287.945648,386.054199 288.001129,386.001740 288.030243,385.975952 
	C291.961151,390.732666 295.862915,395.515137 299.928711,400.588623 
	C300.092743,400.879639 299.975189,401.059418 299.710632,401.262695 
	C299.633575,401.979492 299.821045,402.493042 300.008514,403.006592 
	C300.008514,403.006592 300.000000,403.000000 299.994324,403.411255 
	C300.936981,407.282562 301.885284,410.742584 302.847626,414.610840 
	C303.943573,419.683624 305.025513,424.348236 306.107422,429.012817 
z"/>
<path fill="#C1C1C1" opacity="1.000000" stroke="none" 
	d="
M296.868896,288.163055 
	C297.052094,288.543610 296.986633,288.995331 296.701721,289.716095 
	C296.528259,289.401489 296.574280,288.817871 296.868896,288.163055 
z"/>
<path fill="#6A6A6A" opacity="1.000000" stroke="none" 
	d="
M259.898132,297.712341 
	C259.989624,297.856262 259.516785,297.931458 259.279175,297.909973 
	C259.296570,297.781830 259.551605,297.675140 259.898132,297.712341 
z"/>
<path fill="#505050" opacity="1.000000" stroke="none" 
	d="
M254.693939,299.139465 
	C258.401520,299.004669 261.792114,299.004730 265.605621,299.012634 
	C267.106537,300.355591 267.914856,302.325226 269.308594,302.917603 
	C275.837799,305.692688 282.538208,308.063110 289.146088,310.657959 
	C289.834381,310.928253 290.315582,311.726044 290.956635,312.634064 
	C284.142944,311.423248 277.320526,309.482208 270.363098,308.461487 
	C267.225250,308.001160 263.802673,309.897125 260.537109,309.798798 
	C255.113266,309.635468 250.993927,316.528595 244.749496,312.333038 
	C243.570801,311.541046 240.646927,312.847931 238.761841,313.701874 
	C233.663849,316.011169 228.679153,318.573517 223.684723,321.104980 
	C223.034622,321.434448 222.337997,322.078308 222.094269,322.736359 
	C220.684952,326.541321 218.565506,325.250916 216.175751,323.322266 
	C219.058868,320.830750 222.003967,318.474945 225.204178,316.541290 
	C234.875320,310.697693 244.645447,305.017975 254.693939,299.139465 
z"/>
<path fill="#505050" opacity="1.000000" stroke="none" 
	d="
M209.012177,227.423645 
	C214.029388,224.601425 219.068695,222.276917 223.920013,219.610397 
	C229.449936,216.570862 234.812256,213.226364 240.623428,210.009338 
	C242.448700,214.863144 244.238480,219.654587 245.218994,224.606277 
	C245.802994,227.555496 245.581573,230.861908 244.911774,233.824509 
	C242.919800,242.635086 246.511475,250.747253 247.519791,259.176605 
	C247.960831,262.863586 247.857742,266.612762 248.138351,270.323334 
	C248.235123,271.603119 248.632721,272.895935 249.104599,274.099823 
	C249.460220,275.007172 250.821243,276.169891 250.595963,276.558136 
	C247.150345,282.496246 253.669113,286.845001 252.958252,292.704163 
	C246.639069,285.250031 240.254120,277.436462 234.065216,269.470642 
	C225.216629,258.081451 216.502182,246.587875 207.770264,235.108597 
	C207.297897,234.487610 207.192276,233.587677 206.873215,232.464020 
	C207.537399,230.663742 208.244324,229.217010 209.012177,227.423645 
z"/>
<path fill="#272727" opacity="1.000000" stroke="none" 
	d="
M306.506287,429.008057 
	C305.025513,424.348236 303.943573,419.683624 302.988892,414.353943 
	C303.418488,413.457245 303.720856,413.225586 304.023193,412.993958 
	C306.036621,418.044739 308.050079,423.095520 310.094910,428.523254 
	C309.052582,428.934509 307.978851,428.968903 306.506287,429.008057 
z"/>
<path fill="#2A2A2A" opacity="1.000000" stroke="none" 
	d="
M303.979156,412.625610 
	C303.720856,413.225586 303.418488,413.457245 302.974854,413.945740 
	C301.885284,410.742584 300.936981,407.282562 299.992920,403.405884 
	C301.309814,406.078583 302.622467,409.167938 303.979156,412.625610 
z"/>
<path fill="#2A2A2A" opacity="1.000000" stroke="none" 
	d="
M299.987610,402.710266 
	C299.821045,402.493042 299.633575,401.979492 299.651550,401.352356 
	C299.893555,401.630493 299.930115,402.022217 299.987610,402.710266 
z"/>
<path fill="#2E2E2E" opacity="1.000000" stroke="none" 
	d="
M333.968506,487.730896 
	C333.790649,487.750854 333.528625,487.540375 333.232025,487.071838 
	C333.491302,486.977753 333.720276,487.206665 333.968506,487.730896 
z"/>
<path fill="#676767" opacity="1.000000" stroke="none" 
	d="
M267.118835,439.528503 
	C267.752991,438.244965 268.820068,437.446808 268.906525,436.553711 
	C270.347839,421.661896 271.519196,406.742554 273.095276,391.865875 
	C273.618805,386.924713 275.111511,382.086243 276.551025,377.553040 
	C277.317719,381.611084 277.694519,385.316864 278.071747,389.445435 
	C278.492157,393.981659 278.866058,398.100403 279.340118,402.207581 
	C281.217529,418.472961 283.076355,434.740784 285.041168,450.995697 
	C286.330414,461.661224 287.789581,472.306213 289.145844,483.307129 
	C289.350128,484.769836 289.581207,485.885742 289.773010,487.308533 
	C289.709869,488.026062 289.686005,488.436768 289.662109,488.847443 
	C289.255707,490.075745 288.849304,491.304077 287.984283,493.918457 
	C284.678375,488.671600 281.807587,484.270294 279.097656,479.772064 
	C276.211975,474.982056 273.478546,470.100342 270.367340,465.104919 
	C269.883484,464.399536 269.710907,463.847870 269.294159,463.132019 
	C268.882996,462.409271 268.716034,461.850708 268.301270,461.129517 
	C267.894653,456.834686 267.735870,452.702545 267.284424,448.276123 
	C267.026337,445.311188 267.060883,442.640442 267.118835,439.528503 
z"/>
<path fill="#6A6A6A" opacity="1.000000" stroke="none" 
	d="
M314.011566,466.029572 
	C314.182465,466.037018 314.353363,466.044464 314.780365,466.031586 
	C315.036499,466.011261 315.107941,466.416199 315.121857,466.882751 
	C315.369293,467.591797 315.602814,467.834320 315.836304,468.076874 
	C315.949066,468.794495 316.061829,469.512115 315.945740,470.730591 
	C316.397980,472.526764 317.079041,473.822021 317.760101,475.117310 
	C318.245911,477.051758 318.731720,478.986176 319.233795,481.573730 
	C319.496979,482.479309 319.743927,482.731781 319.990845,482.984222 
	C320.091400,483.309418 320.191956,483.634583 320.397949,484.187897 
	C320.242065,484.566711 319.980713,484.717407 318.959290,485.028992 
	C313.881134,487.179779 309.563110,489.169678 305.166077,490.713928 
	C304.568756,487.201965 304.180389,484.106903 303.508911,481.074524 
	C301.027130,469.866150 298.572083,458.648926 295.837372,447.501190 
	C295.029785,444.209106 293.333008,441.135101 291.983521,437.631714 
	C291.858032,436.640747 291.792725,435.979248 291.805939,434.872070 
	C291.725525,432.327454 291.775024,430.186981 291.366455,428.137878 
	C290.355957,423.069641 289.135773,418.043213 288.300720,412.873535 
	C290.041016,412.834564 291.480438,412.922028 292.981689,413.384796 
	C293.370178,415.492249 293.696838,417.224365 294.018616,419.327118 
	C294.994232,421.133331 295.974670,422.568909 297.109558,424.337006 
	C297.830261,426.214905 298.343079,427.782440 298.971893,429.302002 
	C301.967041,436.540253 304.993683,443.765472 308.009155,450.995300 
	C308.018341,451.440796 308.027496,451.886292 308.067078,452.984436 
	C308.733795,454.423431 309.370056,455.209808 310.006287,455.996185 
	C310.018829,456.441742 310.031372,456.887268 310.081604,457.985718 
	C310.733368,459.122314 311.347443,459.605988 311.961517,460.089661 
	C311.961517,460.089661 311.958405,460.543335 311.991516,461.073212 
	C312.337891,462.093445 312.651154,462.583771 312.964417,463.074097 
	C312.973846,463.503693 312.983307,463.933289 313.107330,464.912384 
	C313.415100,465.748535 313.678314,465.937744 314.011566,466.029572 
z"/>
<path fill="#4F4F4F" opacity="1.000000" stroke="none" 
	d="
M317.819916,474.786621 
	C317.079041,473.822021 316.397980,472.526764 316.014771,471.087280 
	C316.834991,472.114014 317.357361,473.284943 317.819916,474.786621 
z"/>
<path fill="#515151" opacity="1.000000" stroke="none" 
	d="
M319.963501,482.725403 
	C319.743927,482.731781 319.496979,482.479309 319.267609,481.950226 
	C319.502167,481.937927 319.719177,482.202240 319.963501,482.725403 
z"/>
<path fill="#4F4F4F" opacity="1.000000" stroke="none" 
	d="
M315.837280,467.812592 
	C315.602814,467.834320 315.369293,467.591797 315.122742,467.088318 
	C315.352539,467.067688 315.595367,467.308014 315.837280,467.812592 
z"/>
<path fill="#676767" opacity="1.000000" stroke="none" 
	d="
M113.797050,120.270966 
	C113.901077,120.223518 113.877594,120.486290 113.913528,120.611603 
	C113.949455,120.736923 113.651382,120.576126 113.651382,120.576126 
	C113.651382,120.576126 113.693024,120.318413 113.797050,120.270966 
z"/>
<path fill="#898989" opacity="1.000000" stroke="none" 
	d="
M162.518906,119.205887 
	C165.436386,121.370224 167.916199,123.476868 170.881439,125.834023 
	C171.366852,126.084534 171.824188,126.139198 171.855957,126.365105 
	C171.887741,126.591011 171.974487,127.038948 171.979187,127.330002 
	C172.279800,128.087723 172.575729,128.554398 172.876648,129.050079 
	C172.881622,129.079102 172.927750,129.115723 172.925461,129.472275 
	C173.559006,131.246460 174.194839,132.664093 174.856903,134.397720 
	C174.911087,135.135376 174.939011,135.557022 174.966919,135.978668 
	C167.253967,134.315781 159.467468,132.931931 151.845657,130.923172 
	C141.000595,128.064896 130.276505,124.747597 119.279312,121.365067 
	C122.655251,120.747688 126.245689,120.203377 129.851242,120.070976 
	C140.591400,119.676605 151.337479,119.444008 162.518906,119.205887 
z"/>
<path fill="#4E4E4E" opacity="1.000000" stroke="none" 
	d="
M174.997101,136.302460 
	C174.939011,135.557022 174.911087,135.135376 175.001236,134.127472 
	C174.388794,132.066055 173.658279,130.590897 172.927750,129.115723 
	C172.927750,129.115723 172.881622,129.079102 172.899323,128.752823 
	C172.602829,127.964012 172.288666,127.501480 171.974487,127.038948 
	C171.974487,127.038948 171.887741,126.591011 171.821609,126.114380 
	C171.518402,125.407608 171.281311,125.177467 171.044235,124.947327 
	C170.871506,124.074829 170.698776,123.202332 170.734756,122.166588 
	C178.411346,126.582741 185.879242,131.162140 193.660965,136.148804 
	C193.974808,136.556046 194.029327,136.998688 193.774612,137.282806 
	C189.841553,137.812134 186.159531,138.013290 182.486420,138.321060 
	C180.625107,138.477005 178.779907,138.825378 176.927429,139.086777 
	C176.454453,138.774460 175.981476,138.462128 175.247223,138.036713 
	C174.999741,137.491180 175.013519,137.058716 174.997101,136.302460 
z"/>
<path fill="#BFBFBF" opacity="1.000000" stroke="none" 
	d="
M226.527588,118.994507 
	C232.404480,126.535599 237.963425,134.086761 243.522354,141.637924 
	C243.183487,141.873245 242.844620,142.108566 242.505753,142.343872 
	C237.925720,140.910324 233.345688,139.476776 228.361237,138.064026 
	C227.956833,138.084824 227.930191,138.089523 227.900497,137.718109 
	C225.587585,136.554855 223.304352,135.763016 220.852829,134.661194 
	C218.470596,133.554749 216.256683,132.758286 213.987595,131.600342 
	C212.798416,130.480011 211.618393,129.780701 210.541306,128.948196 
	C208.967209,127.731522 207.466995,126.419250 206.303925,125.049088 
	C210.152328,123.659737 213.632111,122.369034 217.111877,121.078323 
	C217.336838,121.058624 217.561813,121.038925 218.180542,120.973801 
	C218.574310,120.928368 218.704239,120.919403 218.704239,120.919403 
	C219.508652,120.909897 220.313049,120.900383 221.824677,120.898964 
	C223.016327,120.601349 223.500778,120.295639 223.985229,119.989922 
	C224.726700,119.661469 225.468155,119.333023 226.527588,118.994507 
z"/>
<path fill="#1B1B1B" opacity="1.000000" stroke="none" 
	d="
M194.029327,136.998688 
	C194.029327,136.998688 193.974808,136.556046 193.943069,136.335999 
	C195.238632,133.371170 196.565933,130.626358 197.976318,127.555534 
	C198.837143,127.117691 199.614883,127.005859 201.096985,127.010651 
	C204.708420,128.629837 207.615524,130.132401 210.269836,131.892700 
	C209.698349,132.776077 209.379669,133.401733 208.838562,134.281769 
	C206.735626,137.060944 204.855087,139.585724 202.675751,141.940765 
	C199.594406,140.180252 196.811859,138.589462 194.029327,136.998688 
z"/>
<path fill="#898989" opacity="1.000000" stroke="none" 
	d="
M216.809998,120.770210 
	C213.632111,122.369034 210.152328,123.659737 205.954407,125.027573 
	C204.537308,125.158165 203.838348,125.211647 203.139389,125.265129 
	C199.845200,124.580238 196.551010,123.895355 193.256821,123.210464 
	C193.280640,122.558731 193.304459,121.906990 193.328293,121.255249 
	C200.866653,118.831932 208.728714,120.120949 216.809998,120.770210 
z"/>
<path fill="#BCBCBC" opacity="1.000000" stroke="none" 
	d="
M202.960663,125.447739 
	C203.838348,125.211647 204.537308,125.158165 205.585785,125.126205 
	C207.466995,126.419250 208.967209,127.731522 210.541306,128.948196 
	C211.618393,129.780701 212.798416,130.480011 213.960907,131.630768 
	C213.989380,132.022659 213.938965,132.085968 213.594467,132.054260 
	C212.340851,131.893372 211.431732,131.764175 210.522614,131.634979 
	C207.615524,130.132401 204.708420,128.629837 201.488617,126.973854 
	C201.711258,126.423744 202.246582,126.027039 202.960663,125.447739 
z"/>
<path fill="#BCBCBC" opacity="1.000000" stroke="none" 
	d="
M223.692001,120.010376 
	C223.500778,120.295639 223.016327,120.601349 222.226913,120.890564 
	C222.414230,120.592987 222.906509,120.311913 223.692001,120.010376 
z"/>
<path fill="#BCBCBC" opacity="1.000000" stroke="none" 
	d="
M218.702362,120.822083 
	C218.704239,120.919403 218.574310,120.928368 218.514832,120.919189 
	C218.455368,120.910011 218.480286,120.665329 218.480286,120.665329 
	C218.480286,120.665329 218.700500,120.724762 218.702362,120.822083 
z"/>
<path fill="#8A8A8A" opacity="1.000000" stroke="none" 
	d="
M225.031311,157.007950 
	C230.847412,155.227158 236.661728,153.440460 242.480667,151.669022 
	C244.373810,151.092682 246.279083,150.556290 248.564148,150.028137 
	C248.031372,152.132263 247.113266,154.209869 245.871063,156.823883 
	C241.655121,164.117493 237.739014,170.860886 233.876251,177.634705 
	C225.246796,192.767487 216.643967,207.915451 207.768494,223.244324 
	C206.558609,224.674683 205.610535,225.917908 204.662460,227.161133 
	C203.802231,226.046921 202.553162,225.059891 202.140900,223.799194 
	C197.046478,208.220978 191.995605,192.626999 187.173080,176.963333 
	C186.593307,175.080246 187.422180,172.763458 188.044083,170.346405 
	C188.667130,170.030670 188.844254,170.016235 189.416687,170.002197 
	C198.187439,166.972015 206.562897,163.941452 215.267822,160.906937 
	C216.407547,160.580444 217.217789,160.257889 218.373932,159.919449 
	C220.128662,159.248383 221.537491,158.593185 223.251801,157.934296 
	C224.048630,157.623032 224.539963,157.315491 225.031311,157.007950 
z"/>
<path fill="#BFBFBF" opacity="1.000000" stroke="none" 
	d="
M208.030289,223.057220 
	C216.643967,207.915451 225.246796,192.767487 233.876251,177.634705 
	C237.739014,170.860886 241.655121,164.117493 245.838882,157.164139 
	C246.732819,158.116348 247.943344,159.320435 247.844101,160.404587 
	C246.674576,173.179596 245.415054,185.949295 243.898346,198.686935 
	C243.621429,201.012497 242.085617,203.188141 241.170258,205.815659 
	C241.209549,206.198334 241.165619,206.168594 240.775970,206.104797 
	C239.251816,207.005493 238.117294,207.970001 236.982788,208.934509 
	C236.982803,208.934509 236.732101,209.106644 236.142258,209.069839 
	C229.892319,209.429947 225.977051,212.479065 223.154587,217.189301 
	C223.154587,217.189301 223.087341,217.189178 222.718857,217.115051 
	C219.297760,217.841446 215.560959,217.679352 215.132156,222.171387 
	C215.132156,222.171387 215.037384,222.156982 214.710327,222.098755 
	C213.618576,222.736923 212.853882,223.433319 212.089172,224.129700 
	C212.089172,224.129700 211.997330,224.087189 211.691986,224.051208 
	C210.267868,223.695892 209.149078,223.376556 208.030289,223.057220 
z"/>
<path fill="#6A6A6A" opacity="1.000000" stroke="none" 
	d="
M218.028046,159.935333 
	C217.217789,160.257889 216.407547,160.580444 215.041229,160.654694 
	C212.140579,160.962311 209.684219,161.239655 207.472748,162.127213 
	C201.268234,164.617371 195.164734,167.359238 189.021378,170.001801 
	C188.844254,170.016235 188.667130,170.030670 188.222916,170.043442 
	C187.650726,169.561005 187.345627,169.080261 187.168854,167.998825 
	C192.522964,158.968933 197.748764,150.539719 202.974548,142.110504 
	C204.855087,139.585724 206.735626,137.060944 209.252594,134.276474 
	C212.608704,134.312881 215.328369,134.608978 218.065826,134.897247 
	C218.083633,134.889420 218.121735,134.881683 218.134949,135.254044 
	C220.448380,136.388031 222.748627,137.149658 225.075180,137.884521 
	C225.101501,137.857758 225.172974,137.834808 225.257172,138.173523 
	C231.576279,140.984344 237.811188,143.456451 244.046112,145.928558 
	C244.046112,145.928558 244.079987,145.921280 244.095825,145.909760 
	C242.616135,147.575348 241.432755,149.899246 239.563248,150.801483 
	C234.993073,153.007080 230.105713,154.555435 225.188660,156.688141 
	C224.539963,157.315491 224.048630,157.623032 223.042725,157.683502 
	C221.028137,158.269409 219.528091,159.102371 218.028046,159.935333 
z"/>
<path fill="#4D4D4D" opacity="1.000000" stroke="none" 
	d="
M202.675751,141.940765 
	C197.748764,150.539719 192.522964,158.968933 187.140945,167.699966 
	C186.495285,168.262177 186.005859,168.522568 185.260605,168.892242 
	C182.320740,159.294815 179.636688,149.588104 176.940033,139.484100 
	C178.779907,138.825378 180.625107,138.477005 182.486420,138.321060 
	C186.159531,138.013290 189.841553,137.812134 193.774612,137.282806 
	C196.811859,138.589462 199.594406,140.180252 202.675751,141.940765 
z"/>
<path fill="#BCBCBC" opacity="1.000000" stroke="none" 
	d="
M207.768494,223.244324 
	C209.149078,223.376556 210.267868,223.695892 211.742584,224.052002 
	C211.143372,224.841629 210.188232,225.594467 209.058395,226.599747 
	C207.846115,227.268555 206.808517,227.684937 205.382172,228.049988 
	C204.993439,227.998672 204.891296,227.900497 204.891296,227.900497 
	C204.891296,227.900497 204.740707,227.541962 204.701584,227.351547 
	C205.610535,225.917908 206.558609,224.674683 207.768494,223.244324 
z"/>
<path fill="#BCBCBC" opacity="1.000000" stroke="none" 
	d="
M205.042267,228.050003 
	C204.925629,228.287018 204.760178,228.472687 204.594727,228.658356 
	C204.566971,228.449249 204.539215,228.240158 204.701385,227.965775 
	C204.891296,227.900497 204.993439,227.998672 205.042267,228.050003 
z"/>
<path fill="#272727" opacity="1.000000" stroke="none" 
	d="
M289.774933,489.280243 
	C289.686005,488.436768 289.709869,488.026062 290.094360,487.538910 
	C291.084473,490.226746 291.713989,492.991058 292.305115,495.586639 
	C299.549103,493.671265 303.920837,490.420776 301.090973,482.659271 
	C300.992798,482.390045 301.182892,482.015747 301.482178,481.978302 
	C302.536743,485.526917 303.347778,488.787659 304.158783,492.048370 
	C302.219269,493.170471 300.279755,494.292603 298.156738,495.698456 
	C297.973236,495.982178 297.984192,495.935303 297.672974,495.948242 
	C296.864685,496.297119 296.367584,496.633026 295.594666,496.994019 
	C294.877075,497.314728 294.435364,497.610382 293.993683,497.906006 
	C293.248108,498.048706 292.502563,498.191376 291.389893,498.439575 
	C290.644440,495.601074 290.266083,492.657074 289.774933,489.280243 
z"/>
<path fill="#676767" opacity="1.000000" stroke="none" 
	d="
M243.831482,145.652557 
	C237.811188,143.456451 231.576279,140.984344 225.601974,138.192078 
	C226.551788,137.944458 227.240997,138.016998 227.930191,138.089523 
	C227.930191,138.089523 227.956833,138.084824 227.941956,138.094833 
	C233.157013,140.528748 238.386948,142.952667 243.831482,145.652557 
z"/>
<path fill="#898989" opacity="1.000000" stroke="none" 
	d="
M305.245056,491.159607 
	C309.563110,489.169678 313.881134,487.179779 318.539856,485.198853 
	C318.553650,489.565857 318.301208,493.932220 317.815826,498.272522 
	C317.746826,498.889282 316.546509,499.379517 315.471619,499.914795 
	C313.957916,498.939697 312.842377,497.978088 311.411377,496.948700 
	C310.934235,496.602478 310.723969,496.367523 310.254944,496.064941 
	C308.653320,494.739380 307.261871,493.524994 305.550659,491.945984 
	C305.230835,491.581360 305.245056,491.159607 305.245056,491.159607 
z"/>
<path fill="#5D5D5D" opacity="1.000000" stroke="none" 
	d="
M305.166077,490.713928 
	C305.245056,491.159607 305.230835,491.581360 305.284485,491.786438 
	C305.141418,492.002991 304.944702,492.014465 304.453400,492.037140 
	C303.347778,488.787659 302.536743,485.526917 301.474823,481.809082 
	C301.223938,481.351990 301.139252,481.019318 301.141418,480.591583 
	C300.958313,478.852936 300.859833,477.522858 300.574463,476.234131 
	C297.748566,463.472534 294.891754,450.717834 292.043701,437.961182 
	C293.333008,441.135101 295.029785,444.209106 295.837372,447.501190 
	C298.572083,458.648926 301.027130,469.866150 303.508911,481.074524 
	C304.180389,484.106903 304.568756,487.201965 305.166077,490.713928 
z"/>
<path fill="#898989" opacity="1.000000" stroke="none" 
	d="
M294.129547,498.227234 
	C294.435364,497.610382 294.877075,497.314728 295.917053,496.997406 
	C297.004913,496.628937 297.494537,496.282104 297.984192,495.935303 
	C297.984192,495.935303 297.973236,495.982178 297.953247,495.965332 
	C299.385193,496.044708 300.837097,496.140930 303.020355,496.285583 
	C302.830994,499.252136 302.658417,501.955750 302.485840,504.659332 
	C301.923767,504.864075 301.361694,505.068787 300.799622,505.273499 
	C298.621552,503.031799 296.443481,500.790100 294.129547,498.227234 
z"/>
<path fill="#676767" opacity="1.000000" stroke="none" 
	d="
M171.008392,125.214233 
	C171.281311,125.177467 171.518402,125.407608 171.789825,125.888474 
	C171.824188,126.139198 171.366852,126.084534 171.138214,126.050293 
	C170.930588,125.837746 170.951584,125.659439 171.008392,125.214233 
z"/>
<path fill="#BCBCBC" opacity="1.000000" stroke="none" 
	d="
M223.500809,217.136673 
	C225.977051,212.479065 229.892319,209.429947 235.990250,209.073578 
	C232.234406,211.770767 228.040710,214.427399 223.500809,217.136673 
z"/>
<path fill="#BCBCBC" opacity="1.000000" stroke="none" 
	d="
M215.473267,222.112717 
	C215.560959,217.679352 219.297760,217.841446 222.742279,217.090942 
	C220.694260,218.778641 218.254318,220.416336 215.473267,222.112717 
z"/>
<path fill="#BCBCBC" opacity="1.000000" stroke="none" 
	d="
M237.298157,208.865250 
	C238.117294,207.970001 239.251816,207.005493 240.758560,206.084793 
	C239.958374,207.017731 238.785950,207.906860 237.298157,208.865250 
z"/>
<path fill="#BCBCBC" opacity="1.000000" stroke="none" 
	d="
M212.400665,224.077332 
	C212.853882,223.433319 213.618576,222.736923 214.755173,222.081833 
	C214.322083,222.757065 213.517105,223.391006 212.400665,224.077332 
z"/>
<path fill="#515151" opacity="1.000000" stroke="none" 
	d="
M308.262604,450.771240 
	C304.993683,443.765472 301.967041,436.540253 298.971893,429.302002 
	C298.343079,427.782440 297.830261,426.214905 297.094543,423.995544 
	C295.957886,421.866547 294.990692,420.411530 294.023499,418.956512 
	C293.696838,417.224365 293.370178,415.492249 292.970551,413.023041 
	C290.595062,406.859833 288.292511,401.433655 285.989197,395.620300 
	C285.324829,392.490753 284.661194,389.748444 283.997559,387.006165 
	C285.073456,386.677094 286.149384,386.348053 287.585449,386.036621 
	C286.050385,392.874390 289.799835,397.140594 294.480042,401.202423 
	C295.487000,402.076324 296.323730,404.706390 295.763336,405.570526 
	C292.389832,410.772278 296.468628,414.049469 298.410950,417.938080 
	C299.853058,420.825317 301.454437,423.712036 302.335083,426.785217 
	C304.588898,434.650421 306.479919,442.619568 308.262604,450.771240 
z"/>
<path fill="#5D5D5D" opacity="1.000000" stroke="none" 
	d="
M283.684753,386.848877 
	C284.661194,389.748444 285.324829,392.490753 285.617645,395.692932 
	C284.846008,397.118408 283.929810,398.209595 284.129425,399.028870 
	C285.272858,403.721680 286.681366,408.349854 287.999847,413.000000 
	C289.135773,418.043213 290.355957,423.069641 291.366455,428.137878 
	C291.775024,430.186981 291.725525,432.327454 291.578369,434.582916 
	C290.245331,431.731293 289.218414,428.723114 288.213623,425.534943 
	C288.235809,425.354980 288.141327,425.004883 288.137512,424.578613 
	C285.436310,412.412292 282.738892,400.672272 280.044312,388.522339 
	C279.674927,385.388214 279.302673,382.663971 278.930420,379.939758 
	C280.410919,382.190369 281.891418,384.441010 283.684753,386.848877 
z"/>
<path fill="#404040" opacity="1.000000" stroke="none" 
	d="
M278.809448,379.662476 
	C279.302673,382.663971 279.674927,385.388214 279.715027,388.532166 
	C278.945679,388.975494 278.508484,388.999084 278.071289,389.022675 
	C277.694519,385.316864 277.317719,381.611084 276.927673,377.454651 
	C277.505737,377.797760 278.097107,378.591492 278.809448,379.662476 
z"/>
<path fill="#515151" opacity="1.000000" stroke="none" 
	d="
M310.245911,455.811157 
	C309.370056,455.209808 308.733795,454.423431 308.096619,453.317322 
	C308.892303,453.873779 309.688934,454.749939 310.245911,455.811157 
z"/>
<path fill="#515151" opacity="1.000000" stroke="none" 
	d="
M311.940735,459.765045 
	C311.347443,459.605988 310.733368,459.122314 310.109375,458.318970 
	C310.706299,458.479675 311.313110,458.960052 311.940735,459.765045 
z"/>
<path fill="#515151" opacity="1.000000" stroke="none" 
	d="
M312.957794,462.765503 
	C312.651154,462.583771 312.337891,462.093445 312.007507,461.299500 
	C312.310638,461.482880 312.630920,461.969879 312.957794,462.765503 
z"/>
<path fill="#515151" opacity="1.000000" stroke="none" 
	d="
M313.907013,465.808105 
	C313.678314,465.937744 313.415100,465.748535 313.127502,465.234100 
	C313.354065,465.114197 313.610504,465.307617 313.907013,465.808105 
z"/>
<path fill="#1B1B1B" opacity="1.000000" stroke="none" 
	d="
M288.141327,425.004883 
	C288.141327,425.004883 288.235809,425.354980 288.151672,425.990448 
	C288.218994,428.423004 288.167480,430.265228 288.555511,432.009705 
	C290.731995,441.793488 292.858734,451.593079 295.314606,461.308319 
	C296.992310,467.945343 299.179718,474.453522 301.139252,481.019318 
	C301.139252,481.019318 301.223938,481.351990 301.231262,481.521179 
	C301.182892,482.015747 300.992798,482.390045 301.090973,482.659271 
	C303.920837,490.420776 299.549103,493.671265 292.305115,495.586639 
	C291.713989,492.991058 291.084473,490.226746 290.133606,487.232056 
	C289.581207,485.885742 289.350128,484.769836 289.399719,483.008606 
	C289.451538,478.110077 289.395752,473.839081 288.959778,469.607208 
	C287.864655,458.977295 286.546814,448.370483 285.418732,437.743774 
	C284.744995,431.397125 284.260590,425.030396 283.691071,418.672699 
	C284.159729,418.639008 284.628418,418.605316 285.097076,418.571625 
	C286.111816,420.716034 287.126587,422.860474 288.141327,425.004883 
z"/>
<path fill="#272727" opacity="1.000000" stroke="none" 
	d="
M288.137512,424.578613 
	C287.126587,422.860474 286.111816,420.716034 285.097076,418.571625 
	C284.628418,418.605316 284.159729,418.639008 283.691071,418.672699 
	C284.260590,425.030396 284.744995,431.397125 285.418732,437.743774 
	C286.546814,448.370483 287.864655,458.977295 288.959778,469.607208 
	C289.395752,473.839081 289.451538,478.110077 289.426514,482.661835 
	C287.789581,472.306213 286.330414,461.661224 285.041168,450.995697 
	C283.076355,434.740784 281.217529,418.472961 279.340118,402.207581 
	C278.866058,398.100403 278.492157,393.981659 278.071747,389.445435 
	C278.508484,388.999084 278.945679,388.975494 279.712158,388.942078 
	C282.738892,400.672272 285.436310,412.412292 288.137512,424.578613 
z"/>
<path fill="#272727" opacity="1.000000" stroke="none" 
	d="
M301.141418,480.591583 
	C299.179718,474.453522 296.992310,467.945343 295.314606,461.308319 
	C292.858734,451.593079 290.731995,441.793488 288.555511,432.009705 
	C288.167480,430.265228 288.218994,428.423004 288.129517,426.170410 
	C289.218414,428.723114 290.245331,431.731293 291.499847,435.028625 
	C291.792725,435.979248 291.858032,436.640747 291.983521,437.631714 
	C294.891754,450.717834 297.748566,463.472534 300.574463,476.234131 
	C300.859833,477.522858 300.958313,478.852936 301.141418,480.591583 
z"/>
<path fill="#676767" opacity="1.000000" stroke="none" 
	d="
M288.300720,412.873535 
	C286.681366,408.349854 285.272858,403.721680 284.129425,399.028870 
	C283.929810,398.209595 284.846008,397.118408 285.618408,396.080170 
	C288.292511,401.433655 290.595062,406.859833 292.908722,412.647736 
	C291.480438,412.922028 290.041016,412.834564 288.300720,412.873535 
z"/>
<path fill="#676767" opacity="1.000000" stroke="none" 
	d="
M294.018616,419.327118 
	C294.990692,420.411530 295.957886,421.866547 296.940125,423.663025 
	C295.974670,422.568909 294.994232,421.133331 294.018616,419.327118 
z"/>
<path fill="#676767" opacity="1.000000" stroke="none" 
	d="
M172.925461,129.472275 
	C173.658279,130.590897 174.388794,132.066055 174.974976,133.811462 
	C174.194839,132.664093 173.559006,131.246460 172.925461,129.472275 
z"/>
<path fill="#676767" opacity="1.000000" stroke="none" 
	d="
M171.979187,127.330002 
	C172.288666,127.501480 172.602829,127.964012 172.894333,128.723801 
	C172.575729,128.554398 172.279800,128.087723 171.979187,127.330002 
z"/>
<path fill="#BCBCBC" opacity="1.000000" stroke="none" 
	d="
M227.900497,137.718109 
	C227.240997,138.016998 226.551788,137.944458 225.517792,137.853363 
	C225.172974,137.834808 225.101501,137.857758 224.918396,137.605453 
	C223.470337,136.597046 222.205383,135.840942 220.960739,135.056519 
	C220.981049,135.028198 221.021133,134.971176 221.021133,134.971176 
	C223.304352,135.763016 225.587585,136.554855 227.900497,137.718109 
z"/>
<path fill="#BCBCBC" opacity="1.000000" stroke="none" 
	d="
M214.016068,131.992249 
	C216.256683,132.758286 218.470596,133.554749 220.852829,134.661194 
	C221.021133,134.971176 220.981049,135.028198 220.607544,135.029861 
	C219.529938,134.981583 218.825836,134.931625 218.121735,134.881683 
	C218.121735,134.881683 218.083633,134.889420 217.908066,134.619507 
	C216.467987,133.595047 215.203476,132.840515 213.938965,132.085968 
	C213.938965,132.085968 213.989380,132.022659 214.016068,131.992249 
z"/>
<path fill="#676767" opacity="1.000000" stroke="none" 
	d="
M213.594467,132.054260 
	C215.203476,132.840515 216.467987,133.595047 217.890259,134.627335 
	C215.328369,134.608978 212.608704,134.312881 209.475006,134.022095 
	C209.379669,133.401733 209.698349,132.776077 210.269836,131.892700 
	C211.431732,131.764175 212.340851,131.893372 213.594467,132.054260 
z"/>
<path fill="#676767" opacity="1.000000" stroke="none" 
	d="
M189.416687,170.002197 
	C195.164734,167.359238 201.268234,164.617371 207.472748,162.127213 
	C209.684219,161.239655 212.140579,160.962311 214.711746,160.658661 
	C206.562897,163.941452 198.187439,166.972015 189.416687,170.002197 
z"/>
<path fill="#676767" opacity="1.000000" stroke="none" 
	d="
M218.373932,159.919464 
	C219.528091,159.102371 221.028137,158.269409 222.737244,157.687225 
	C221.537491,158.593185 220.128662,159.248383 218.373932,159.919464 
z"/>
<path fill="#676767" opacity="1.000000" stroke="none" 
	d="
M218.134949,135.254028 
	C218.825836,134.931625 219.529938,134.981583 220.587234,135.058167 
	C222.205383,135.840942 223.470337,136.597046 224.892090,137.632217 
	C222.748627,137.149658 220.448380,136.388031 218.134949,135.254028 
z"/>
<path fill="#868686" opacity="1.000000" stroke="none" 
	d="
M297.672974,495.948242 
	C297.494537,496.282104 297.004913,496.628937 296.192902,496.972351 
	C296.367584,496.633026 296.864685,496.297119 297.672974,495.948242 
z"/>
</svg>